<?xml version="1.0" standalone="no"?>
<!DOCTYPE svg PUBLIC "-//W3C//DTD SVG 20010904//EN"
 "http://www.w3.org/TR/2001/REC-SVG-20010904/DTD/svg10.dtd">
<svg version="1.0" xmlns="http://www.w3.org/2000/svg"
 width="481.000000pt" height="481.000000pt" viewBox="0 0 481.000000 481.000000"
 preserveAspectRatio="xMidYMid meet">
<metadata>
Created by potrace 1.14, written by Peter Selinger 2001-2017
</metadata>
<g transform="translate(0.000000,481.000000) scale(0.100000,-0.100000)"
fill="#000000" stroke="none">
<path d="M3572 4313 c-52 -17 -93 -63 -107 -119 -15 -59 -6 -103 30 -149 49
-65 65 -69 303 -70 116 0 212 -3 212 -6 0 -3 -84 -87 -187 -185 -103 -99 -208
-199 -233 -224 -40 -39 -292 -279 -446 -426 -28 -27 -116 -110 -195 -184 -138
-130 -456 -442 -1032 -1012 -148 -148 -274 -268 -279 -268 -6 0 -5 -7 2 -15
11 -13 10 -14 -1 -10 -8 3 -24 -4 -36 -15 -12 -11 -25 -20 -28 -20 -3 0 -23
-11 -44 -24 -21 -14 -42 -22 -45 -18 -4 3 -4 -1 -1 -10 4 -9 14 -15 23 -13 9
2 19 4 22 4 3 1 -2 6 -10 12 -12 8 -10 9 9 4 15 -5 21 -3 17 3 -9 14 28 34 48
26 12 -5 15 -2 10 10 -3 9 -1 16 6 16 6 0 8 -5 4 -12 -5 -8 -2 -9 9 -5 9 3 19
2 22 -3 4 -6 11 -10 17 -10 6 0 6 6 -2 15 -11 13 -11 18 -1 28 10 9 12 8 9 -7
-1 -10 3 -21 11 -24 8 -2 11 0 8 6 -9 13 19 35 35 29 8 -3 6 -6 -5 -6 -10 -1
-16 -5 -13 -10 3 -5 19 -7 36 -5 26 3 30 1 26 -14 -5 -15 -1 -18 24 -18 24 0
29 3 25 15 -5 13 -4 14 6 4 18 -18 30 -16 22 4 -5 12 -2 15 10 10 10 -4 20 0
26 11 6 9 11 12 11 5 0 -6 -4 -15 -10 -18 -16 -10 -12 -21 9 -22 15 -1 18 5
15 35 -3 37 -2 37 11 12 8 -14 14 -19 15 -12 0 6 5 12 11 12 8 0 8 -4 0 -14
-7 -8 -8 -16 -4 -19 13 -8 83 -6 78 3 -8 13 25 21 43 11 9 -5 21 -9 25 -9 5 0
11 -3 14 -6 3 -3 -7 -3 -22 0 -17 3 -24 1 -20 -6 3 -5 1 -18 -5 -27 -10 -16
-10 -16 -5 3 4 14 1 21 -10 21 -18 0 -18 -2 -4 -29 9 -16 8 -19 -2 -13 -8 6
-10 4 -4 -5 6 -9 4 -11 -5 -5 -9 6 -11 4 -5 -5 5 -9 4 -11 -4 -6 -6 4 -9 12
-6 17 4 5 1 9 -4 9 -10 0 -15 -14 -12 -33 1 -4 -11 0 -25 10 -26 17 -27 17
-16 -3 9 -17 7 -20 -14 -19 -13 0 -31 10 -40 24 l-17 24 -16 -29 c-8 -16 -14
-33 -13 -37 1 -5 -3 -5 -9 -2 -8 5 -8 10 0 18 16 16 13 30 -5 23 -10 -4 -13
-2 -8 6 4 7 3 8 -4 4 -18 -11 -14 -29 4 -22 14 5 15 4 5 -8 -19 -23 -43 -9
-30 16 9 16 8 19 -3 16 -7 -3 -13 -10 -13 -16 0 -5 -3 -14 -7 -17 -4 -4 -3
-16 2 -25 7 -13 6 -20 -5 -24 -8 -3 -17 -1 -20 4 -4 6 -2 10 3 10 5 0 9 13 8
29 0 16 -5 27 -10 24 -5 -4 -6 0 -1 7 5 9 4 11 -4 6 -6 -4 -8 -12 -5 -18 4 -6
2 -8 -4 -4 -6 3 -13 2 -17 -4 -4 -6 -11 -8 -16 -4 -5 3 -17 0 -26 -8 -9 -7
-14 -8 -10 -2 3 6 0 11 -8 11 -8 0 -15 -4 -15 -9 0 -5 -5 -6 -11 -2 -6 3 -7 9
-3 13 12 8 17 34 6 27 -4 -2 -9 4 -9 15 -1 10 3 19 8 19 6 0 8 4 4 10 -3 5
-12 7 -20 4 -15 -6 -16 -25 -1 -35 4 -4 3 -10 -3 -13 -6 -4 -11 -2 -11 3 0 6
-5 11 -11 11 -5 0 -8 -4 -5 -9 3 -5 -1 -14 -9 -21 -11 -9 -15 -9 -15 -1 0 7
-5 9 -11 5 -8 -4 -7 -9 2 -15 10 -6 10 -9 2 -9 -6 0 -15 5 -18 10 -4 6 -11 7
-17 4 -6 -4 -8 -3 -5 3 3 5 0 10 -8 10 -8 0 -15 -5 -15 -11 0 -6 -7 0 -16 12
-12 17 -19 20 -33 12 -10 -5 -21 -6 -25 -2 -4 3 -4 -2 0 -13 7 -18 6 -19 -12
-5 -19 14 -19 14 0 -8 11 -12 14 -22 8 -22 -6 0 -18 10 -26 22 -9 12 -16 18
-16 12 0 -6 -18 -10 -40 -9 -23 1 -43 -2 -46 -7 -3 -5 -10 -6 -15 -3 -5 4 -9
0 -9 -7 0 -9 -3 -9 -10 2 -7 11 -10 11 -10 2 0 -8 -5 -10 -12 -5 -7 4 -26 9
-43 10 -52 4 -110 11 -110 13 0 2 -9 4 -20 5 -35 5 -49 10 -63 22 -10 10 -18
10 -36 -2 -12 -8 -27 -12 -31 -8 -5 5 -3 0 4 -10 10 -12 17 -15 25 -7 5 5 15
10 20 10 6 -1 0 -10 -13 -20 -24 -20 -42 -26 -40 -12 4 21 -3 31 -21 29 -11
-1 -20 -6 -20 -11 0 -5 -3 -6 -6 -3 -4 3 -15 2 -25 -3 -12 -7 -20 -6 -25 2 -4
6 -3 9 2 5 5 -3 20 0 33 7 20 11 21 14 7 19 -12 5 -15 3 -10 -5 5 -8 2 -9 -9
-5 -9 3 -19 2 -22 -4 -4 -5 -11 -6 -17 -3 -7 4 -8 2 -4 -5 5 -7 2 -10 -6 -9
-7 2 -12 -3 -10 -10 1 -8 -2 -11 -8 -7 -6 3 -7 11 -4 17 5 7 2 8 -6 3 -10 -6
-11 -4 -4 6 4 8 10 23 11 34 2 13 -4 9 -15 -12 -16 -30 -18 -31 -30 -15 -7 9
-10 11 -6 4 5 -11 2 -12 -13 -3 -11 6 -23 7 -27 4 -3 -3 -6 0 -6 8 -1 8 -11 1
-26 -16 -13 -16 -22 -22 -18 -13 3 10 1 18 -4 18 -6 0 -9 -12 -6 -27 4 -23 3
-25 -11 -13 -9 7 -12 16 -8 19 15 11 14 39 -1 37 -19 -3 -34 -16 -18 -16 6 0
10 -9 9 -20 -1 -11 -5 -20 -10 -20 -5 0 -7 7 -3 15 3 8 2 14 -2 14 -4 -1 -9 0
-12 1 -20 7 -39 7 -34 -2 4 -6 -6 -2 -21 8 -28 18 -28 18 -17 -2 9 -16 7 -20
-8 -20 -10 0 -17 4 -14 7 2 4 0 10 -6 14 -5 3 -10 -3 -10 -14 0 -12 6 -21 14
-21 9 0 13 -9 11 -25 -2 -23 -1 -24 14 -11 19 17 53 15 59 -3 3 -9 9 -7 23 5
10 9 19 12 19 6 0 -6 -4 -13 -10 -17 -5 -3 -6 -13 -3 -23 6 -15 5 -15 -10 -3
-25 20 -21 6 7 -24 17 -18 26 -22 32 -14 4 7 3 9 -3 6 -21 -13 -22 22 -2 47
19 25 39 27 39 5 0 -6 -4 -8 -9 -4 -5 3 -13 1 -16 -5 -4 -6 -3 -10 2 -9 4 1
16 -1 26 -6 10 -4 21 -5 24 -1 4 3 -1 6 -10 6 -13 0 -15 5 -8 22 6 16 17 23
40 24 19 1 30 -3 28 -10 -2 -6 -16 -10 -30 -10 -15 1 -27 -3 -27 -8 0 -5 9 -6
21 -3 18 6 19 5 10 -13 -8 -15 -8 -23 1 -28 6 -4 8 -3 5 3 -8 12 29 63 45 63
7 0 2 -10 -10 -23 -23 -24 -29 -52 -13 -61 5 -4 7 2 4 12 -6 23 30 68 45 58
19 -11 14 -26 -5 -19 -14 5 -15 3 -6 -7 14 -15 35 -4 31 17 -2 9 3 18 10 20 8
3 10 -2 6 -14 -5 -15 -4 -15 5 -3 5 8 14 11 18 6 4 -4 -2 -15 -15 -23 -23 -16
-29 -33 -11 -33 5 0 7 5 3 11 -4 8 1 9 17 4 13 -3 19 -3 12 2 -8 6 -8 12 1 25
7 10 16 15 20 11 4 -4 4 1 0 12 -7 18 -6 18 9 7 16 -14 13 -47 -4 -36 -5 3 -9
0 -9 -5 0 -20 20 -11 31 12 12 27 47 34 45 9 0 -9 5 -16 12 -15 6 2 12 -2 12
-7 0 -6 5 -10 11 -10 8 0 8 5 -1 15 -10 12 -9 16 4 21 9 3 23 4 30 1 10 -4 13
-1 10 7 -3 7 2 13 11 13 9 0 14 -6 11 -14 -3 -8 -1 -11 4 -8 6 3 8 19 5 35 -3
16 0 32 7 36 7 4 8 3 4 -5 -4 -6 0 -14 8 -17 9 -3 16 -10 16 -16 0 -5 -4 -6
-10 -3 -5 3 -10 1 -10 -5 0 -7 7 -9 16 -6 10 4 14 1 12 -6 -3 -7 -10 -13 -16
-13 -5 0 -14 -3 -18 -8 -4 -4 -16 -7 -26 -7 -10 0 -18 -4 -18 -10 0 -10 27 -3
47 13 9 6 15 4 19 -7 3 -9 11 -16 16 -16 6 0 5 6 -2 15 -10 12 -9 16 5 22 12
4 24 -1 36 -16 21 -25 43 -19 36 10 -3 12 2 20 14 24 10 4 19 11 19 17 0 6 3
8 8 4 4 -4 7 -19 7 -34 1 -14 7 -27 15 -30 12 -3 12 -1 2 5 -10 7 -8 14 9 29
21 19 22 19 16 -1 -4 -11 -2 -27 3 -34 7 -12 12 -11 28 10 11 13 24 20 28 16
5 -4 2 -12 -6 -17 -9 -6 -10 -10 -3 -10 7 0 17 8 22 18 10 16 10 16 11 0 0
-10 5 -18 11 -18 5 0 7 -6 3 -12 -5 -9 -2 -9 9 1 9 7 17 21 17 30 0 10 9 17
20 18 20 2 20 2 1 -23 -17 -22 -19 -54 -4 -54 3 0 3 7 0 15 -3 7 3 24 14 37
16 18 19 19 15 5 -4 -11 -2 -16 5 -12 6 4 8 13 5 20 -2 7 1 21 9 31 12 17 13
16 11 -11 -1 -17 -5 -36 -9 -43 -5 -6 -4 -12 2 -12 5 0 13 9 16 21 6 19 7 20
20 2 7 -10 16 -15 20 -11 11 11 33 -15 28 -32 -4 -13 -4 -13 6 0 7 11 6 19 -5
32 -18 19 -8 43 16 43 22 0 34 -24 20 -41 -8 -8 -8 -14 -2 -14 5 0 13 7 16 16
3 8 11 12 17 8 8 -4 7 -9 -2 -15 -8 -5 -9 -9 -3 -9 13 0 34 21 34 35 0 5 -5 3
-10 -5 -6 -10 -10 -11 -10 -2 0 6 -7 12 -15 12 -8 0 -15 4 -15 9 0 14 53 6 58
-8 3 -9 10 -7 23 5 10 9 19 12 19 6 0 -6 -10 -18 -22 -26 -12 -9 -19 -18 -17
-21 3 -2 15 4 27 15 12 12 22 16 22 10 0 -5 5 -10 11 -10 5 0 7 5 3 12 -5 8
-2 9 10 5 10 -4 15 -3 11 3 -14 22 14 8 29 -15 9 -14 24 -24 34 -24 16 1 16 2
-1 6 -9 2 -15 8 -12 13 3 5 13 6 23 3 14 -4 13 -2 -3 11 -20 17 -20 17 1 11
15 -4 29 2 45 20 26 26 50 35 29 10 -7 -8 -9 -15 -5 -15 4 0 14 8 22 18 13 16
13 16 11 -3 -4 -25 -18 -36 -39 -30 -17 6 -49 -33 -49 -57 0 -7 8 2 16 20 9
17 21 32 26 32 5 0 6 -4 3 -10 -3 -5 -2 -10 4 -10 5 0 13 5 16 10 4 6 15 8 25
5 21 -7 34 17 17 34 -8 8 -8 11 0 11 18 0 34 -25 23 -38 -7 -8 -7 -9 1 -3 6 5
17 8 23 7 6 -2 8 -1 3 1 -4 3 -5 9 -2 14 3 5 0 19 -6 31 -11 20 -10 21 3 11 8
-7 19 -9 23 -5 5 4 5 -1 2 -10 -3 -10 -1 -20 6 -24 7 -4 9 -4 5 1 -11 11 11
47 24 39 7 -5 8 -2 3 6 -6 10 -4 12 8 7 10 -4 14 -2 12 6 -7 18 22 50 39 44
11 -5 14 1 10 26 -2 22 -1 28 6 17 5 -8 12 -11 16 -7 4 3 1 13 -6 22 -7 9 -8
15 -2 15 6 0 12 -6 15 -12 3 -9 14 -4 32 15 14 15 31 24 37 21 6 -4 9 -1 6 7
-3 8 -11 13 -17 11 -7 -1 -10 2 -6 8 4 7 12 7 26 0 15 -8 19 -8 17 2 -2 7 3
12 11 10 12 -3 12 -1 1 13 -11 14 -11 16 0 13 8 -2 14 4 15 12 0 8 6 16 13 16
6 1 19 2 28 3 13 1 14 4 5 15 -10 12 -8 13 9 9 16 -4 19 -2 14 13 -4 11 -4 16
0 13 4 -4 22 8 41 26 18 19 36 31 39 28 3 -4 6 0 6 7 0 16 66 81 74 73 3 -4 6
-1 6 6 0 16 95 111 111 111 7 0 10 3 6 6 -8 8 75 94 85 88 5 -3 7 -1 6 5 -4
14 121 133 133 126 5 -3 6 1 3 9 -4 11 0 16 11 16 10 0 13 -5 9 -12 -5 -7 -3
-8 5 -3 8 5 9 11 3 17 -10 10 84 105 100 100 5 -1 7 1 4 6 -7 12 58 74 69 65
4 -5 5 -3 2 3 -8 14 26 47 38 37 4 -5 6 -3 2 2 -6 12 104 125 122 125 6 0 11
5 11 11 0 6 7 8 16 5 8 -3 13 -2 10 2 -3 4 4 14 16 21 16 10 19 10 13 -1 -3
-7 -1 -6 7 2 27 32 187 85 172 57 -5 -8 -3 -8 7 1 17 16 219 17 219 1 0 -8 4
-8 13 -2 14 12 80 -3 72 -16 -3 -5 3 -7 13 -4 20 5 122 -43 122 -58 0 -5 6 -8
13 -7 6 2 11 -3 9 -10 -1 -8 2 -11 7 -8 28 18 165 -132 210 -229 12 -27 26
-57 30 -65 8 -15 14 -36 26 -100 7 -32 8 -208 1 -235 -14 -61 -21 -85 -42
-134 -13 -29 -21 -58 -17 -64 3 -5 2 -7 -4 -4 -6 4 -24 -16 -42 -42 -17 -27
-42 -59 -55 -72 -13 -13 -22 -29 -19 -36 3 -9 0 -11 -10 -8 -8 4 -23 -4 -34
-17 -10 -13 -25 -24 -33 -26 -7 -2 -22 -13 -32 -24 -10 -12 -18 -17 -18 -12 0
11 -20 -18 -20 -30 0 -5 7 -3 15 4 11 9 15 9 15 1 0 -7 5 -9 10 -6 6 4 8 10 5
15 -3 4 3 16 13 27 9 10 14 14 9 7 -4 -6 0 -17 10 -25 14 -12 16 -12 11 1 -3
9 0 24 8 35 8 10 14 14 14 8 0 -7 -5 -15 -10 -18 -6 -4 -8 -11 -4 -16 3 -5 14
1 24 13 15 19 20 20 34 9 10 -9 16 -10 16 -2 0 6 5 11 11 11 8 0 8 -5 -1 -15
-7 -8 -8 -15 -2 -15 5 0 17 10 26 23 9 13 13 15 10 5 -5 -14 -1 -16 20 -12 19
3 28 -2 43 -26 9 -16 21 -30 25 -30 12 0 5 24 -12 37 -13 11 -13 12 3 7 10 -4
17 -3 16 2 -1 5 -1 15 0 23 1 11 4 11 18 0 15 -12 16 -12 11 3 -9 22 16 56 27
38 5 -9 4 -11 -3 -6 -7 4 -12 2 -13 -3 -4 -40 -2 -55 10 -59 8 -3 11 0 7 6 -9
16 14 26 27 13 9 -9 8 -11 -4 -6 -10 4 -16 1 -16 -8 0 -8 11 -14 29 -14 20 0
25 4 18 11 -13 13 -13 26 0 26 6 0 9 -5 8 -11 -2 -6 3 -14 11 -17 8 -3 11 0 7
7 -4 6 -4 17 1 24 4 6 8 18 9 25 2 8 5 17 8 20 4 3 5 -4 3 -16 -2 -12 -6 -25
-10 -28 -17 -17 -5 -25 13 -9 11 10 20 13 20 8 0 -6 -7 -14 -16 -17 -16 -6
-11 -26 7 -26 6 0 7 4 4 10 -4 6 1 7 11 3 11 -4 15 -3 10 5 -3 6 3 17 14 25
11 7 17 17 12 22 -4 4 3 3 15 -4 14 -7 24 -8 28 -1 6 10 -2 14 -20 10 -5 -1
-6 2 -2 7 5 4 13 9 18 9 5 1 14 2 19 3 6 0 9 4 8 9 -1 4 8 26 20 50 13 23 21
46 18 51 -3 4 4 13 14 21 10 8 17 17 14 21 -8 13 7 59 17 53 5 -3 6 1 3 9 -3
8 2 43 10 78 15 65 16 299 2 364 -89 399 -348 679 -731 790 -48 14 -97 25
-109 25 -38 0 -37 11 2 48 20 19 118 112 217 207 99 94 216 206 260 248 l80
76 5 -227 c5 -212 6 -229 27 -262 49 -79 157 -103 240 -55 23 14 43 30 43 35
0 5 8 16 18 26 16 16 17 58 20 549 l3 531 -512 0 c-376 0 -521 -4 -547 -13z
m-1301 -2500 c13 -16 12 -17 -3 -4 -10 7 -18 15 -18 17 0 8 8 3 21 -13z m-84
-68 c0 -8 -4 -12 -9 -9 -5 3 -6 10 -3 15 9 13 12 11 12 -6z m1958 5 c3 -5 1
-10 -4 -10 -6 0 -11 5 -11 10 0 6 2 10 4 10 3 0 8 -4 11 -10z m-2299 -18 c-3
-3 0 -12 6 -21 10 -13 10 -14 -2 -4 -16 15 -23 46 -8 37 5 -3 7 -9 4 -12z
m2241 3 c0 -8 -3 -13 -5 -10 -3 3 -12 -1 -21 -7 -10 -8 -9 -4 3 10 23 26 23
26 23 7z m284 -2 c13 -16 12 -17 -3 -4 -17 13 -22 21 -14 21 2 0 10 -8 17 -17z
m-2488 -11 c15 -16 15 -19 2 -19 -8 0 -13 3 -10 5 3 3 0 11 -6 19 -17 20 -5
16 14 -5z m158 1 c12 -16 12 -17 -2 -6 -9 7 -20 9 -24 5 -5 -4 -5 -1 -1 6 9
16 11 15 27 -5z m99 13 c0 -2 -8 -10 -17 -17 -16 -13 -17 -12 -4 4 13 16 21
21 21 13z m1985 -27 c-3 -4 3 -12 12 -18 10 -6 13 -11 7 -11 -6 0 -17 7 -24
15 -7 8 -9 15 -5 15 4 0 1 8 -6 18 -13 15 -12 16 3 3 10 -7 15 -17 13 -22z
m282 24 c-4 -3 -1 -13 6 -22 11 -14 10 -14 -5 -2 -21 15 -23 31 -6 31 6 0 8
-3 5 -7z m-2425 -27 c11 6 2 -6 -31 -46 -2 -3 -1 3 3 14 3 10 1 26 -6 35 -12
14 -11 14 4 3 9 -8 23 -10 30 -6z m108 0 c-7 -7 -13 -7 -20 0 -6 6 -3 10 10
10 13 0 16 -4 10 -10z m2080 10 c0 -2 -7 -7 -16 -10 -8 -3 -12 -2 -9 4 6 10
25 14 25 6z m83 -7 c-6 -6 -9 -19 -6 -28 5 -13 3 -14 -7 -4 -11 10 -11 15 0
28 7 8 15 15 18 15 3 0 1 -5 -5 -11z m-2492 -13 c5 3 9 0 9 -6 0 -15 -23 -7
-26 8 -1 7 0 8 3 2 2 -5 9 -8 14 -4z m69 -7 c0 -5 -4 -9 -8 -9 -5 0 -9 7 -9
15 0 8 4 12 9 9 4 -3 8 -9 8 -15z m103 8 c3 -8 0 -14 -7 -14 -7 0 -13 6 -13
14 0 7 4 13 8 13 4 0 9 -6 12 -13z m211 1 c-5 -8 -1 -9 12 -5 18 7 18 6 2 -6
-10 -8 -14 -18 -10 -22 4 -5 2 -5 -5 -2 -6 4 -10 15 -8 25 5 23 4 22 11 22 3
0 2 -5 -2 -12z m-439 -8 c3 -5 1 -10 -4 -10 -6 0 -11 5 -11 10 0 6 2 10 4 10
3 0 8 -4 11 -10z m2358 -5 c4 -8 1 -17 -5 -21 -7 -4 -8 -3 -4 4 4 7 2 12 -4
12 -6 0 -8 5 -5 10 8 14 12 13 18 -5z m37 9 c0 -8 -19 -13 -24 -6 -3 5 1 9 9
9 8 0 15 -2 15 -3z m204 -10 c3 -8 0 -16 -7 -20 -7 -4 -9 -4 -5 1 4 4 0 13 -8
20 -15 11 -15 12 -1 12 9 0 18 -6 21 -13z m-2409 -12 c-3 -3 -11 0 -18 7 -9
10 -8 11 6 5 10 -3 15 -9 12 -12z m187 11 c-13 -3 -19 -9 -16 -15 4 -7 2 -8
-5 -4 -17 11 -3 26 22 25 22 -2 22 -2 -1 -6z m-352 -13 c0 -5 -8 -10 -17 -10
-15 0 -16 2 -3 10 19 12 20 12 20 0z m54 -1 c-4 -8 1 -9 17 -5 13 3 18 3 11 0
-6 -3 -10 -10 -7 -15 4 -5 -1 -6 -11 -2 -14 5 -15 3 -5 -15 14 -26 14 -32 0
-32 -5 0 -8 4 -4 9 3 5 1 12 -5 16 -5 3 -8 16 -6 28 6 28 5 27 12 27 3 0 2 -5
-2 -11z m82 -1 c4 -6 3 -8 -3 -5 -5 4 -16 -5 -23 -18 -7 -14 -17 -25 -22 -25
-5 0 0 14 12 30 24 34 26 35 36 18z m112 -13 c-6 -14 -13 -23 -15 -21 -5 5 15
46 22 46 3 0 -1 -11 -7 -25z m23 2 c-10 -9 -11 -8 -5 6 3 10 9 15 12 12 3 -3
0 -11 -7 -18z m2124 13 c3 -5 1 -10 -4 -10 -6 0 -11 5 -11 10 0 6 2 10 4 10 3
0 8 -4 11 -10z m253 -4 c-10 -7 -15 -16 -11 -20 4 -4 -1 -4 -11 0 -17 6 -16 8
5 20 31 17 39 17 17 0z m-2691 -11 c0 -8 -4 -12 -9 -9 -4 3 -8 9 -8 15 0 5 4
9 8 9 5 0 9 -7 9 -15z m60 -17 c-3 -7 -5 -2 -5 12 0 14 2 19 5 13 2 -7 2 -19
0 -25z m267 -3 c-23 -17 -34 -19 -34 -4 0 5 4 7 10 4 5 -3 15 3 22 15 7 11 15
15 17 9 1 -5 -5 -17 -15 -24z m2083 3 c-3 -7 -5 -2 -5 12 0 14 2 19 5 13 2 -7
2 -19 0 -25z m73 23 c0 -6 -5 -13 -12 -17 -6 -4 -8 -3 -4 4 3 5 0 13 -6 15 -8
3 -6 6 5 6 9 1 17 -3 17 -8z m-140 -11 c0 -5 -4 -10 -10 -10 -5 0 -10 5 -10
10 0 6 5 10 10 10 6 0 10 -4 10 -10z m240 0 c0 -5 -4 -10 -10 -10 -5 0 -10 5
-10 10 0 6 5 10 10 10 6 0 10 -4 10 -10z m-2400 -10 c0 -5 -5 -10 -11 -10 -5
0 -7 5 -4 10 3 6 8 10 11 10 2 0 4 -4 4 -10z m220 0 c0 -5 -4 -10 -10 -10 -5
0 -10 5 -10 10 0 6 5 10 10 10 6 0 10 -4 10 -10z m2055 -10 c8 -13 -5 -13 -25
0 -13 8 -13 10 2 10 9 0 20 -4 23 -10z m-3124 -99 c0 11 2 11 6 1 2 -6 8 -10
12 -8 4 3 7 -3 6 -12 0 -9 -3 -17 -6 -17 -3 0 -13 -6 -23 -14 -9 -8 -19 -11
-22 -8 -4 3 -15 -4 -26 -16 -18 -21 -18 -21 -16 -2 2 16 -3 20 -27 20 -16 0
-35 3 -42 8 -7 4 -16 1 -21 -9 -8 -15 -11 -15 -30 4 -19 19 -20 20 -25 1 -5
-18 -7 -18 -41 -4 -20 9 -36 12 -36 8 0 -4 -5 -2 -12 5 -16 16 -31 15 -22 0 5
-9 2 -8 -10 1 -13 11 -14 16 -4 22 6 4 16 5 20 3 4 -3 5 3 2 13 -3 10 -2 14 3
8 8 -9 21 -14 52 -19 8 -2 20 -11 27 -21 13 -18 20 -10 15 18 -1 9 22 4 30 -7
4 -5 15 -5 25 -1 11 4 24 9 29 10 6 2 17 4 25 6 8 2 14 -2 15 -10 0 -23 20
-23 49 0 17 13 24 26 19 33 -4 7 0 3 10 -7 12 -14 17 -15 18 -6z m454 -2 c-7
-10 -5 -10 35 -13 14 0 31 -5 38 -10 9 -5 22 0 38 15 17 16 24 18 24 8 0 -12
2 -11 11 1 9 13 10 12 5 -2 -3 -10 0 -21 7 -25 16 -10 47 -11 52 -2 3 4 14 5
25 2 11 -3 20 -1 20 4 0 5 6 10 13 10 24 0 15 -28 -14 -42 -24 -13 -28 -13
-33 1 -5 13 -9 14 -21 4 -10 -8 -19 -9 -27 -3 -7 5 -31 9 -53 8 -22 -1 -43 3
-46 7 -3 5 -12 -4 -19 -21 -7 -17 -17 -31 -22 -31 -6 0 -6 5 1 14 9 11 6 13
-15 10 -19 -2 -24 1 -20 13 9 23 -3 34 -24 21 -10 -7 -17 -15 -15 -18 5 -8
-62 -6 -71 2 -4 4 1 10 10 14 9 3 13 11 9 18 -3 6 3 3 14 -7 20 -17 53 -14 53
5 0 5 -6 6 -12 2 -7 -4 -5 2 6 14 18 20 43 21 31 1z m-785 2 c0 -5 -7 -12 -16
-15 -13 -5 -14 -9 -5 -20 9 -10 9 -16 1 -21 -6 -4 -14 -4 -17 -1 -4 3 -18 -4
-32 -16 -14 -13 -20 -16 -13 -7 7 9 9 25 5 35 -6 16 -5 17 9 6 14 -11 19 -9
34 17 18 30 34 40 34 22z m1204 -7 c3 -9 2 -12 -5 -9 -5 4 -17 1 -26 -7 -15
-12 -15 -11 -2 10 16 26 25 28 33 6z m-1339 -4 c9 7 17 3 29 -14 10 -15 12
-27 6 -31 -17 -10 -31 6 -25 28 5 19 4 19 -9 -3 -9 -14 -15 -19 -16 -10 0 11
-3 11 -12 2 -16 -16 -25 -15 -25 2 0 8 6 12 15 8 12 -4 14 -1 8 14 -6 15 -5
16 5 7 8 -9 16 -9 24 -3z m579 -12 c-2 -4 14 -5 37 -3 34 3 39 2 28 -11 -9
-11 -15 -12 -26 -3 -11 10 -12 9 -7 -5 3 -9 1 -16 -5 -16 -6 0 -11 4 -11 8 0
4 -10 8 -22 9 -19 1 -17 -2 10 -15 17 -8 32 -22 32 -31 0 -15 -23 2 -76 55
l-20 21 32 -1 c18 0 30 -4 28 -8z m173 -8 c-1 -13 -6 -19 -15 -15 -8 3 -10 0
-6 -8 5 -9 4 -9 -6 0 -12 11 -11 15 6 28 24 18 23 19 21 -5z m63 8 c0 -4 -5
-10 -11 -13 -7 -5 -5 -13 6 -25 10 -11 15 -25 13 -32 -3 -8 -11 0 -21 18 -9
17 -14 34 -11 37 3 3 0 8 -7 13 -8 5 -10 3 -4 -6 6 -9 4 -11 -6 -5 -11 6 -12
5 -1 -6 16 -17 15 -30 -1 -23 -8 3 -20 -2 -27 -11 -14 -16 -30 -20 -30 -7 0 5
12 14 26 21 15 6 24 15 20 18 -10 10 14 32 35 30 10 -1 19 -5 19 -9z m-115
-10 c4 4 6 1 3 -7 -2 -8 -11 -17 -19 -19 -8 -3 -11 -1 -7 3 4 5 2 15 -5 24
-10 14 -10 14 4 4 9 -7 19 -9 24 -5z m555 -9 c0 -5 5 -9 11 -9 5 0 7 5 3 12
-5 7 -3 8 5 3 17 -10 -1 -27 -22 -20 -8 4 -18 13 -21 20 -3 9 0 12 10 8 7 -3
14 -9 14 -14z m160 -1 c0 -6 -6 -5 -15 2 -8 7 -15 14 -15 16 0 2 7 1 15 -2 8
-4 15 -11 15 -16z m-45 -7 c3 -5 2 -12 -3 -15 -5 -3 -9 1 -9 9 0 17 3 19 12 6z
m-135 -25 c0 -3 -4 -8 -10 -11 -5 -3 -10 -1 -10 4 0 6 5 11 10 11 6 0 10 -2
10 -4z"/>
<path d="M715 1510 c-3 -5 -5 -10 -3 -11 33 -8 38 -7 27 7 -14 17 -16 17 -24
4z"/>
<path d="M900 1511 c-8 -6 -17 -8 -21 -5 -4 2 -13 -4 -20 -13 -12 -15 -12 -16
1 -8 20 13 52 17 46 7 -3 -5 1 -9 9 -9 10 0 12 4 5 12 -5 7 -7 15 -3 18 9 10
0 8 -17 -2z"/>
<path d="M977 1499 c-8 -10 -17 -16 -22 -11 -5 4 -5 1 0 -7 7 -12 10 -11 22 4
8 12 13 14 13 6 0 -11 3 -11 15 -1 8 6 19 9 24 5 6 -3 9 0 6 7 -8 21 -43 19
-58 -3z"/>
<path d="M765 1490 c3 -5 8 -10 11 -10 2 0 4 5 4 10 0 6 -5 10 -11 10 -5 0 -7
-4 -4 -10z"/>
<path d="M1587 1508 c-3 -8 5 -14 20 -14 13 -1 23 -1 21 0 -2 1 -10 7 -19 14
-13 10 -18 10 -22 0z"/>
<path d="M1487 1495 c2 -8 13 -13 24 -12 12 1 15 5 9 11 -15 15 -39 16 -33 1z"/>
<path d="M1386 1492 c-3 -5 1 -9 9 -9 8 0 12 4 9 9 -3 4 -7 8 -9 8 -2 0 -6 -4
-9 -8z"/>
<path d="M1110 3154 c-105 -16 -233 -55 -325 -101 -242 -121 -440 -361 -521
-630 -23 -78 -27 -106 -28 -243 -1 -161 5 -225 23 -274 7 -16 9 -31 6 -34 -2
-3 0 -11 6 -19 6 -7 8 -13 3 -13 -5 0 -4 -4 3 -8 6 -4 13 -16 15 -27 1 -11 7
-23 11 -26 4 -3 9 -15 10 -27 0 -11 5 -18 9 -16 4 3 8 -2 8 -10 0 -9 5 -16 12
-16 6 0 9 -3 5 -6 -8 -9 33 -85 50 -91 12 -5 12 -7 1 -14 -10 -7 -9 -9 5 -9
10 0 20 6 23 14 3 8 16 13 29 12 13 0 21 -4 19 -7 -2 -4 4 -13 13 -20 15 -12
16 -12 10 5 -5 12 -3 23 5 28 19 11 25 10 43 -9 14 -14 20 -14 37 -4 24 15 39
1 31 -30 -7 -24 3 -24 16 0 8 14 6 25 -10 45 -23 29 -19 35 5 10 17 -17 104
-26 112 -12 3 4 -3 8 -13 9 -11 0 -13 3 -5 6 17 6 44 -16 35 -30 -4 -6 0 -8
11 -4 11 4 15 3 11 -4 -4 -6 -14 -8 -22 -5 -11 5 -13 1 -8 -17 5 -17 4 -19 -4
-7 -7 10 -11 11 -11 3 0 -7 -4 -13 -10 -13 -5 0 -9 5 -7 11 1 6 -4 14 -12 17
-8 3 -11 0 -7 -7 5 -7 1 -9 -8 -5 -10 4 -16 1 -16 -7 0 -10 -2 -11 -8 -2 -4 7
-13 9 -20 4 -10 -6 -10 -10 1 -20 11 -9 17 -8 27 4 9 11 17 12 32 4 11 -6 22
-8 25 -5 4 3 13 0 21 -7 13 -9 14 -9 8 1 -4 7 -2 12 5 12 7 0 9 3 6 7 -10 10
29 34 46 27 11 -4 14 3 12 30 -3 29 -1 33 10 23 9 -8 10 -16 3 -25 -6 -7 -8
-16 -4 -19 4 -4 11 -1 16 7 7 11 10 11 10 2 0 -7 -7 -15 -16 -19 -13 -5 -13
-8 -2 -15 9 -7 8 -8 -6 -4 -14 5 -17 2 -12 -9 3 -9 2 -13 -4 -10 -6 3 -10 13
-10 21 0 8 -3 14 -8 14 -4 0 -7 -13 -7 -29 -1 -23 2 -28 12 -19 7 6 13 8 13 4
0 -4 10 0 23 9 20 13 26 13 43 1 11 -9 25 -11 34 -6 16 8 22 10 42 10 9 0 9 3
0 12 -9 9 -15 9 -24 0 -8 -8 -15 -9 -25 -1 -9 9 -13 8 -13 0 0 -8 -5 -9 -19
-2 -13 7 -17 18 -14 35 4 19 -4 32 -34 59 -77 70 -114 107 -107 107 3 0 1 7
-6 15 -10 12 -16 13 -29 3 -14 -11 -14 -11 -4 3 11 13 7 26 -18 73 -17 31 -38
85 -46 119 -17 74 -21 286 -5 312 3 5 7 19 8 30 1 12 10 39 20 61 9 21 18 42
18 45 3 20 69 108 77 103 5 -3 9 -2 8 3 -3 20 2 34 11 28 6 -3 10 -1 10 5 0
20 78 92 91 84 8 -4 10 -3 5 4 -9 14 39 46 55 36 7 -4 9 -3 6 3 -8 14 80 56
100 49 8 -3 12 -2 9 3 -7 11 60 24 76 15 7 -5 8 -3 3 6 -5 8 -3 11 6 8 8 -3
13 -11 11 -17 -1 -7 2 -10 8 -6 6 3 8 11 4 16 -3 6 27 9 77 8 62 -1 87 -6 98
-18 9 -9 13 -12 9 -7 -5 6 -8 14 -8 18 0 14 22 8 36 -9 13 -16 14 -16 8 -1 -5
15 -2 16 24 8 17 -4 33 -6 36 -2 3 3 6 0 6 -6 0 -7 3 -11 8 -11 4 1 10 0 15
-1 12 -4 26 -7 38 -9 5 0 7 -6 3 -13 -5 -8 -2 -9 9 -5 28 10 176 -100 159
-119 -4 -4 -2 -5 3 -1 12 6 98 -76 89 -85 -3 -3 3 -5 13 -5 10 1 17 -4 16 -10
-2 -7 0 -12 5 -11 12 4 194 -181 187 -191 -3 -5 -1 -13 5 -16 6 -4 9 -1 8 7
-2 7 3 12 11 10 7 -2 22 5 32 14 10 9 23 13 30 8 8 -5 10 -3 5 5 -10 15 23 53
38 44 6 -3 8 -2 3 2 -10 12 43 66 57 58 6 -3 8 -3 4 2 -11 11 12 36 25 28 6
-3 7 -1 3 5 -4 7 3 22 14 34 52 55 56 47 -131 232 -245 242 -347 313 -535 375
-155 50 -297 65 -434 45z m-759 -1341 c13 -16 12 -17 -3 -4 -10 7 -18 15 -18
17 0 8 8 3 21 -13z m214 -11 c-3 -3 -11 0 -18 7 -9 10 -8 11 6 5 10 -3 15 -9
12 -12z m-145 -26 c0 -2 -8 -10 -17 -17 -16 -13 -17 -12 -4 4 13 16 21 21 21
13z m243 -41 c-7 -21 -12 -19 -10 4 0 11 5 18 9 15 4 -3 5 -11 1 -19z m-288
-5 c10 -11 16 -20 13 -20 -3 0 -13 9 -23 20 -10 11 -16 20 -13 20 3 0 13 -9
23 -20z m236 3 c13 -16 12 -17 -3 -4 -10 7 -18 15 -18 17 0 8 8 3 21 -13z
m-162 4 c-2 -1 -13 -9 -24 -17 -19 -14 -19 -14 -6 3 7 9 18 17 24 17 6 0 8 -1
6 -3z m77 -19 c19 -23 19 -23 -2 -5 -11 9 -24 14 -29 10 -4 -5 -5 -2 -1 5 9
16 10 16 32 -10z m-75 -12 c-6 -7 -9 -21 -5 -30 3 -9 2 -16 -3 -16 -13 0 -13
32 0 48 5 6 12 12 14 12 3 0 0 -6 -6 -14z m144 4 c3 -6 -1 -7 -9 -4 -18 7 -21
14 -7 14 6 0 13 -4 16 -10z m135 6 c0 -2 -7 -7 -16 -10 -8 -3 -12 -2 -9 4 6
10 25 14 25 6z m55 -19 c4 5 5 2 1 -5 -4 -7 -11 -10 -16 -7 -4 3 -10 2 -13 -2
-2 -5 -3 -3 -1 3 1 6 -3 18 -9 25 -7 7 -3 6 9 -4 11 -9 24 -14 29 -10z m-277
-18 c-3 -8 -7 -3 -11 10 -4 17 -3 21 5 13 5 -5 8 -16 6 -23z m-111 6 c5 -4 2
-5 -6 0 -11 6 -13 4 -8 -8 9 -23 0 -21 -13 2 -7 15 -7 19 5 17 8 -1 18 -6 22
-11z m155 -2 c-6 -3 -9 -10 -6 -15 4 -7 2 -8 -5 -4 -9 6 -9 11 0 22 6 8 15 12
18 8 3 -4 0 -9 -7 -11z m55 -8 c0 -8 -4 -15 -9 -15 -10 0 -11 14 -1 23 9 10
10 9 10 -8z m-122 -14 c-3 -6 -11 -11 -16 -11 -5 0 -4 6 3 14 14 16 24 13 13
-3z m212 13 c-3 -3 -12 -4 -19 -1 -8 3 -5 6 6 6 11 1 17 -2 13 -5z m113 -4 c0
-5 -4 -10 -10 -10 -5 0 -10 5 -10 10 0 6 5 10 10 10 6 0 10 -4 10 -10z m-397
-17 c-7 -2 -13 -9 -13 -14 0 -6 5 -7 10 -4 6 3 10 1 10 -4 0 -14 -17 -14 -25
-1 -8 13 3 30 18 29 9 0 9 -2 0 -6z m97 -2 c0 -5 -7 -12 -16 -15 -14 -5 -15
-4 -4 9 14 17 20 19 20 6z m58 -5 c-7 -8 -15 -12 -17 -11 -5 6 10 25 20 25 5
0 4 -6 -3 -14z m102 -1 c0 -8 -2 -15 -4 -15 -2 0 -6 7 -10 15 -3 8 -1 15 4 15
6 0 10 -7 10 -15z m34 0 c-4 -8 -8 -15 -10 -15 -2 0 -4 7 -4 15 0 8 4 15 10
15 5 0 7 -7 4 -15z m76 10 c0 -7 -30 -13 -34 -7 -3 4 4 9 15 9 10 1 19 0 19
-2z m26 -34 c-8 -12 -36 -3 -36 11 0 6 8 4 17 -3 15 -12 16 -12 9 6 -5 15 -4
17 5 8 6 -6 8 -16 5 -22z m-336 15 c0 -3 -4 -8 -10 -11 -5 -3 -10 -1 -10 4 0
6 5 11 10 11 6 0 10 -2 10 -4z m120 0 c0 -2 -7 -9 -15 -16 -13 -11 -14 -10 -9
4 5 14 24 23 24 12z"/>
<path d="M3396 2748 c3 -4 11 -5 19 -1 21 7 19 12 -4 10 -11 0 -18 -5 -15 -9z"/>
<path d="M3716 2748 c3 -5 10 -6 15 -3 13 9 11 12 -6 12 -8 0 -12 -4 -9 -9z"/>
<path d="M3788 2733 c6 -2 9 -10 6 -15 -4 -7 -2 -8 5 -4 13 9 5 26 -12 25 -9
0 -8 -2 1 -6z"/>
<path d="M3310 2716 c0 -2 7 -7 16 -10 8 -3 12 -2 9 4 -6 10 -25 14 -25 6z"/>
<path d="M1535 2690 c-3 -5 -1 -10 4 -10 6 0 11 5 11 10 0 6 -2 10 -4 10 -3 0
-8 -4 -11 -10z"/>
<path d="M885 2670 c-3 -6 1 -7 9 -4 18 7 21 14 7 14 -6 0 -13 -4 -16 -10z"/>
<path d="M2665 1888 c-63 -62 -115 -118 -115 -124 0 -6 7 -17 15 -24 9 -7 14
-19 11 -27 -3 -8 2 -13 14 -13 12 0 20 -7 20 -16 0 -11 6 -14 20 -9 12 4 20 2
20 -5 0 -6 -4 -8 -10 -5 -5 3 -10 2 -10 -3 0 -6 7 -13 16 -16 8 -3 13 -9 11
-13 -3 -5 6 -9 19 -10 46 -4 54 -6 54 -16 0 -5 -7 -6 -15 -3 -33 13 -49 16
-27 5 12 -7 22 -18 22 -25 0 -7 9 -15 19 -19 11 -3 23 -15 26 -26 6 -18 16
-23 40 -20 6 0 11 -9 12 -21 1 -11 7 -26 14 -32 8 -8 9 -5 4 12 -6 22 -5 23
14 13 12 -7 21 -16 21 -22 0 -6 -4 -7 -10 -4 -6 4 -7 -1 -3 -11 4 -11 8 -13
11 -6 2 7 8 10 12 7 5 -3 6 -13 3 -22 -5 -13 -2 -15 11 -10 14 6 17 3 12 -8
-4 -11 -2 -14 6 -9 8 5 9 2 5 -9 -9 -25 0 -21 14 6 6 12 8 19 4 15 -4 -4 -18
6 -31 21 -31 38 -31 51 1 21 14 -13 25 -20 25 -16 0 5 9 -2 20 -15 l20 -24
-11 28 c-7 15 -19 26 -27 25 -8 -2 -17 2 -19 8 -2 7 9 11 28 10 18 -1 35 -8
37 -15 3 -8 0 -11 -7 -7 -7 5 -8 1 -4 -10 4 -12 8 -14 11 -6 3 10 7 10 18 1
11 -9 18 -8 32 5 21 18 42 22 24 4 -7 -7 -12 -17 -12 -22 0 -6 5 -3 11 6 5 10
16 15 25 11 13 -5 15 -1 9 18 -7 23 -7 24 13 6 14 -13 21 -15 24 -6 2 7 21 14
41 15 30 1 35 -1 26 -12 -6 -7 -18 -10 -26 -7 -11 4 -14 2 -9 -5 4 -6 20 -10
37 -8 16 2 32 0 35 -5 3 -5 -3 -9 -13 -10 -11 0 -13 -3 -5 -6 15 -6 42 14 42
31 0 6 -5 4 -10 -4 -7 -11 -10 -12 -10 -2 0 9 -7 11 -22 7 -19 -6 -21 -5 -11
6 17 17 54 19 60 2 4 -11 9 -11 24 3 11 9 19 12 19 6 0 -6 -10 -18 -22 -26
-12 -9 -19 -18 -17 -21 3 -2 15 4 27 15 12 12 22 16 22 10 0 -5 5 -10 11 -10
5 0 7 5 4 10 -3 6 -2 10 3 10 18 0 21 -29 4 -33 -14 -4 -15 -5 -1 -6 9 0 24 8
34 19 21 23 44 28 25 5 -10 -12 -9 -16 4 -21 9 -4 20 -4 23 0 4 3 -1 6 -11 6
-9 0 -15 4 -12 9 7 11 54 6 71 -9 11 -9 15 -9 15 -1 0 6 -5 11 -11 11 -5 0 -7
5 -4 11 4 6 0 9 -10 7 -10 -2 -20 2 -22 8 -2 7 11 10 34 9 21 -1 48 5 61 12
30 18 28 2 -3 -25 -14 -12 -25 -17 -25 -12 0 6 -6 10 -12 10 -7 0 -1 -11 14
-24 15 -13 24 -27 20 -32 -4 -4 -1 -4 6 0 17 10 15 26 -4 26 -14 0 -14 3 -4
15 13 16 35 21 25 6 -9 -15 34 -24 50 -11 8 7 15 9 15 4 0 -4 5 -3 12 4 14 14
52 16 43 2 -6 -9 7 -14 21 -7 3 1 12 -9 19 -23 10 -17 14 -20 15 -9 0 9 -7 22
-15 29 -8 7 -15 9 -15 4 0 -11 -20 18 -20 29 0 10 43 -12 52 -27 4 -6 10 -7
15 -3 4 5 1 12 -7 17 -17 11 -17 11 33 15 34 3 37 2 26 -13 -11 -14 -11 -15 1
-4 8 6 17 12 20 12 9 0 6 -32 -4 -48 -4 -6 -2 -20 4 -29 10 -16 10 -15 5 4 -3
12 -1 24 5 28 6 3 10 -4 11 -17 1 -18 2 -19 6 -5 3 10 -1 25 -8 33 -6 8 -9 18
-5 22 8 7 27 -19 38 -53 6 -19 6 -19 7 2 1 12 -3 25 -9 28 -5 3 -10 11 -10 17
0 7 5 6 15 -2 8 -6 19 -9 24 -6 5 4 12 2 16 -4 3 -5 -2 -10 -12 -11 -11 0 -13
-3 -5 -6 17 -6 44 16 35 30 -4 6 0 8 11 4 11 -5 15 -3 10 5 -5 8 -2 9 10 5 10
-4 21 -7 24 -7 4 0 0 -5 -8 -11 -13 -9 -13 -10 0 -8 28 3 41 -1 35 -11 -3 -6
1 -7 10 -3 10 3 12 8 7 12 -14 8 8 36 31 37 9 1 17 -2 17 -7 0 -5 7 -9 15 -9
8 0 15 -5 15 -11 0 -5 -4 -8 -9 -5 -5 3 -14 -1 -21 -9 -9 -10 -9 -15 -1 -15 6
0 11 5 11 11 0 5 4 8 9 4 5 -3 16 1 24 9 8 8 17 12 21 9 3 -3 8 1 12 10 5 13
10 14 25 6 10 -5 19 -15 19 -21 0 -7 -5 -6 -15 2 -8 7 -15 8 -15 3 0 -5 12
-16 28 -23 15 -8 31 -16 36 -19 5 -2 6 1 2 7 -4 7 -14 12 -21 12 -11 0 -12 6
-6 22 6 16 17 23 40 24 19 1 30 -3 28 -10 -2 -6 -16 -10 -30 -10 -15 1 -27 -3
-27 -8 0 -5 9 -7 20 -3 14 4 19 2 17 -7 -2 -7 -2 -10 0 -6 2 4 12 4 21 1 15
-4 15 -3 2 6 -14 10 -7 16 13 12 5 -1 5 4 1 10 -4 8 1 9 17 5 15 -4 12 0 -10
11 -34 18 -42 34 -21 41 6 2 9 -2 8 -10 -2 -7 4 -13 12 -13 8 0 18 -4 22 -10
4 -6 8 -2 8 8 0 10 4 16 9 12 5 -3 13 4 16 16 6 17 9 19 17 8 6 -10 7 -7 3 10
-5 15 -3 21 3 17 6 -3 13 3 17 14 4 11 11 17 17 14 5 -4 4 4 -3 17 -12 23 -11
23 6 9 10 -8 16 -10 12 -3 -4 6 -1 13 5 16 7 2 10 7 6 11 -7 9 -49 -11 -45
-22 1 -4 -8 -17 -21 -30 -12 -12 -20 -27 -17 -32 3 -5 -4 -7 -15 -5 -11 2 -18
0 -15 -6 4 -5 11 -7 16 -4 5 4 9 2 9 -3 0 -6 -7 -13 -16 -16 -8 -3 -13 -2 -10
2 3 4 -6 9 -20 10 -47 3 -53 5 -47 16 4 6 0 5 -9 -1 -8 -7 -18 -10 -21 -6 -4
3 -12 1 -20 -5 -8 -7 -18 -7 -27 -2 -11 7 -11 10 -2 11 6 1 17 3 22 4 6 1 15
3 21 4 5 0 7 6 4 11 -4 7 -13 6 -27 -1 -18 -10 -24 -8 -38 11 -17 22 -40 21
-40 -2 0 -7 6 -6 15 2 10 9 15 9 15 1 0 -10 -13 -15 -35 -12 -5 1 1 -8 15 -19
22 -18 23 -20 5 -18 -15 2 -20 -2 -18 -17 1 -17 -1 -17 -18 5 -18 22 -19 22
-10 3 7 -14 8 -24 1 -28 -5 -3 -11 -1 -11 4 -1 6 -2 17 -3 24 -1 6 0 17 3 22
3 6 7 19 8 30 2 14 -3 10 -17 -12 -11 -18 -22 -33 -25 -33 -4 0 -3 5 1 12 5 7
3 8 -6 3 -8 -5 -11 -4 -7 1 3 5 -3 10 -13 10 -10 0 -17 -4 -14 -7 2 -4 -1 -11
-7 -15 -7 -4 -9 -3 -6 2 3 5 -3 10 -13 10 -10 0 -16 -5 -13 -11 4 -5 -3 -1
-15 9 -25 22 -27 27 -9 23 17 -3 15 26 -3 30 -12 4 -12 3 -2 -5 11 -7 10 -11
-5 -17 -10 -5 -24 -7 -30 -6 -7 1 -13 -3 -13 -9 0 -6 4 -9 8 -6 4 2 14 0 22
-5 11 -7 8 -8 -10 -6 -14 3 -31 -3 -38 -12 -11 -14 -12 -13 -3 6 15 30 4 55
-19 43 -9 -5 -20 -6 -24 -2 -4 3 -4 -2 0 -13 7 -17 5 -18 -8 -8 -8 7 -18 10
-22 6 -3 -4 -14 -8 -24 -9 -9 -2 -18 -8 -20 -13 -2 -6 -8 -11 -13 -11 -6 0 -7
6 -3 13 6 9 4 9 -7 1 -8 -6 -22 -10 -32 -9 -9 2 -15 0 -12 -5 3 -4 -13 -7 -35
-5 -22 1 -40 -2 -40 -7 0 -6 -7 -5 -15 2 -21 17 -29 7 -16 -18 14 -27 14 -29
-4 -29 -9 0 -13 7 -10 16 2 9 0 23 -5 31 -8 12 -10 12 -10 1 0 -11 -3 -11 -17
0 -9 8 -14 9 -10 3 8 -14 -17 -26 -38 -18 -11 4 -12 10 -6 18 7 9 4 12 -12 13
-31 1 -62 10 -86 23 -12 6 -21 8 -21 6 0 -8 -81 35 -118 63 -28 21 -37 23 -53
13 -28 -18 -37 -15 -11 4 l22 15 -32 27 c-18 15 -38 31 -44 37 -6 5 -23 19
-37 30 -15 11 -27 26 -27 33 0 9 -6 12 -16 8 -8 -3 -13 -2 -10 3 7 11 -200
211 -219 211 -9 0 -67 -51 -130 -112z m176 -165 c12 -16 12 -17 -2 -6 -9 7
-20 9 -24 5 -5 -4 -5 -1 -1 6 9 16 11 15 27 -5z m-151 -7 c0 -2 -7 -7 -16 -10
-8 -3 -12 -2 -9 4 6 10 25 14 25 6z m16 -25 c-1 -17 -5 -26 -9 -21 -5 4 -6 17
-2 29 9 29 12 26 11 -8z m76 15 c11 6 2 -6 -31 -46 -2 -3 -1 3 3 14 3 10 1 26
-6 35 -12 14 -11 14 4 3 9 -8 23 -10 30 -6z m-49 -9 c3 -8 -1 -14 -8 -14 -7 0
-11 6 -8 14 3 7 6 13 8 13 2 0 5 -6 8 -13z m335 -18 c-3 -8 -7 -3 -11 10 -4
17 -3 21 5 13 5 -5 8 -16 6 -23z m-153 11 c3 -6 -1 -7 -9 -4 -18 7 -21 14 -7
14 6 0 13 -4 16 -10z m60 0 c4 -6 3 -10 -2 -9 -21 4 -34 -2 -27 -13 4 -7 3 -8
-5 -4 -9 6 -9 11 0 22 14 17 25 18 34 4z m-89 -18 c1 -7 0 -8 -3 -2 -2 5 -9
10 -14 10 -6 0 -7 -5 -3 -12 4 -7 3 -8 -5 -4 -14 9 -4 29 12 23 6 -2 12 -9 13
-15z m117 3 c-3 -9 -8 -14 -10 -11 -3 3 -2 9 2 15 9 16 15 13 8 -4z m101 -1
c3 -8 2 -12 -4 -9 -6 3 -10 10 -10 16 0 14 7 11 14 -7z m-326 -19 c-6 -14 -13
-23 -15 -21 -5 5 15 46 22 46 3 0 -1 -11 -7 -25z m23 2 c-10 -9 -11 -8 -5 6 3
10 9 15 12 12 3 -3 0 -11 -7 -18z m249 13 c0 -5 -4 -10 -10 -10 -5 0 -10 5
-10 10 0 6 5 10 10 10 6 0 10 -4 10 -10z m-383 -22 c-3 -8 -6 -5 -6 6 -1 11 2
17 5 13 3 -3 4 -12 1 -19z m163 7 c0 -8 -4 -15 -10 -15 -5 0 -7 7 -4 15 4 8 8
15 10 15 2 0 4 -7 4 -15z m90 0 c5 3 12 0 16 -6 4 -8 3 -9 -4 -5 -19 11 -14
-2 9 -25 24 -24 60 -19 39 6 -19 23 0 18 20 -5 10 -12 16 -30 13 -43 -4 -21
-4 -21 11 -3 8 10 13 23 10 27 -3 5 3 6 12 2 11 -4 15 -2 11 4 -10 15 21 25
42 13 10 -5 21 -6 25 -3 3 3 6 1 6 -6 0 -7 -7 -10 -17 -7 -14 4 -18 0 -19 -17
-1 -19 3 -23 27 -23 23 0 28 3 24 17 -3 10 -1 20 4 24 6 3 8 0 5 -8 -3 -8 2
-14 11 -14 10 0 13 6 10 17 -6 20 21 35 31 18 4 -6 3 -8 -4 -4 -6 3 -13 3 -15
-2 -3 -4 6 -13 20 -19 21 -10 24 -10 18 4 -5 15 -3 14 14 -1 11 -10 17 -24 14
-34 -5 -11 -3 -13 8 -6 20 13 32 12 51 -4 9 -8 21 -11 27 -8 5 3 15 1 23 -6 7
-7 24 -14 38 -16 14 -1 30 -3 36 -4 23 -3 6 -32 -20 -35 -16 -2 -25 0 -22 5 3
6 -1 13 -9 16 -12 4 -13 2 -6 -13 6 -10 18 -22 27 -25 9 -4 14 -9 11 -13 -4
-3 -13 0 -22 7 -13 11 -19 10 -34 -4 -17 -16 -19 -16 -25 0 -3 9 -13 14 -20
11 -8 -3 -17 1 -20 10 -5 12 -9 13 -21 3 -8 -6 -20 -8 -27 -4 -7 5 -23 8 -35
9 -27 0 -38 11 -22 21 7 4 10 3 6 -3 -8 -13 25 -13 42 1 10 7 13 7 8 0 -7 -12
22 -12 42 1 9 5 12 4 8 -3 -5 -6 0 -8 13 -5 11 3 20 10 20 16 0 15 13 -1 16
-19 2 -10 -3 -14 -12 -10 -22 8 -17 -2 7 -15 15 -8 19 -8 15 0 -4 6 -3 11 3
11 5 0 9 9 8 19 0 11 -5 17 -11 14 -5 -3 -6 -2 -3 3 3 6 -5 10 -18 10 -13 0
-21 -4 -18 -10 3 -5 1 -6 -6 -2 -6 4 -19 2 -28 -6 -12 -9 -15 -9 -9 -1 5 9 2
11 -11 7 -14 -4 -15 -3 -4 4 9 7 10 12 2 16 -6 4 -11 2 -11 -4 0 -6 -5 -8 -11
-4 -8 5 -8 9 1 14 8 5 7 9 -4 13 -9 4 -15 1 -13 -6 1 -6 -9 -11 -25 -11 -16 1
-28 -3 -28 -7 0 -5 5 -9 11 -9 5 0 8 -4 4 -10 -3 -5 -12 -7 -20 -4 -11 5 -12
11 -4 26 9 16 8 19 -2 13 -8 -6 -10 -4 -4 5 5 8 4 11 -3 6 -6 -4 -8 -14 -5
-24 5 -14 3 -14 -9 2 -15 19 -38 15 -38 -6 0 -7 6 -6 15 2 9 8 15 8 15 2 0 -6
-3 -12 -7 -15 -5 -2 -2 -2 5 0 8 1 10 -2 6 -9 -4 -7 -3 -8 4 -4 8 5 10 1 5
-10 -4 -11 -8 -13 -11 -6 -2 7 -8 12 -13 12 -6 0 -8 -4 -4 -9 7 -13 -12 -24
-27 -15 -8 5 -7 10 4 18 14 10 14 14 2 31 -10 13 -14 15 -14 4 0 -8 -3 -10 -8
-4 -4 6 -16 11 -27 13 -17 2 -18 1 -5 -8 13 -10 13 -11 0 -7 -8 2 -14 11 -12
20 1 9 -4 14 -12 13 -19 -3 -34 -16 -18 -16 6 0 10 -9 9 -20 -1 -11 -5 -20
-10 -20 -5 0 -6 8 -3 17 4 10 4 14 0 10 -4 -4 -14 -1 -23 5 -13 10 -14 10 -3
-2 6 -8 12 -19 12 -24 0 -6 -4 -5 -9 3 -5 8 -17 16 -27 17 -14 2 -12 -2 7 -20
13 -13 27 -19 30 -13 4 6 9 5 13 -1 10 -16 -13 -25 -29 -12 -8 7 -15 9 -15 4
-1 -5 -7 2 -14 16 -8 14 -12 28 -10 31 2 4 -3 10 -11 13 -13 4 -14 2 -5 -14 6
-11 7 -20 3 -20 -4 0 -2 -4 6 -9 9 -6 10 -11 2 -15 -10 -6 -15 6 -12 27 2 11
-13 8 -35 -8 -18 -14 -18 -14 4 -8 13 3 22 1 22 -6 0 -13 -26 -10 -56 7 -12 6
-25 8 -29 4 -3 -4 -6 -2 -5 3 6 28 0 37 -15 25 -12 -10 -18 -6 -33 19 -10 17
-21 28 -24 25 -3 -3 -9 0 -14 7 -4 7 -3 10 3 6 16 -10 25 23 12 39 -8 10 -8
14 0 14 6 0 11 -4 11 -8 0 -5 11 -14 25 -20 32 -15 35 -15 35 -2 0 6 -7 10
-15 10 -8 0 -15 5 -15 10 0 7 6 7 18 1 10 -6 28 -8 39 -5 12 3 25 -2 33 -13
12 -15 12 -16 0 -5 -17 15 -40 16 -40 1 0 -5 4 -8 9 -4 6 3 13 0 18 -7 8 -14
43 -21 43 -9 0 4 -7 16 -15 27 -20 27 -19 37 3 17 11 -10 17 -21 15 -25 -2 -5
3 -8 11 -8 8 0 17 3 19 8 5 10 -30 42 -38 34 -3 -4 -3 2 1 13 5 11 9 14 12 7
2 -7 8 -10 12 -7z m91 -12 c-12 -20 -14 -14 -5 12 4 9 9 14 11 11 3 -2 0 -13
-6 -23z m-291 -9 c0 -2 -9 0 -20 6 -11 6 -20 13 -20 16 0 2 9 0 20 -6 11 -6
20 -13 20 -16z m248 12 c-7 -8 -15 -12 -17 -11 -5 6 10 25 20 25 5 0 4 -6 -3
-14z m128 2 c4 -7 3 -8 -5 -4 -6 4 -23 1 -36 -8 -29 -19 -35 -20 -35 -4 0 6 3
8 6 5 4 -3 16 0 28 8 25 18 33 19 42 3z m34 -8 c0 -5 -4 -10 -10 -10 -5 0 -10
5 -10 10 0 6 5 10 10 10 6 0 10 -4 10 -10z m0 -60 c0 -5 -4 -10 -10 -10 -5 0
-10 5 -10 10 0 6 5 10 10 10 6 0 10 -4 10 -10z m720 -27 c0 -5 -4 -15 -9 -23
-13 -19 -2 -34 14 -20 17 14 73 22 79 11 6 -10 37 -8 55 3 7 5 17 4 23 -2 6
-6 17 -8 26 -4 11 4 10 0 -4 -15 -10 -11 -24 -28 -30 -38 -10 -19 -34 -14 -34
7 0 6 7 5 18 -3 15 -13 16 -12 4 3 -8 9 -11 21 -8 27 3 5 -5 8 -19 6 -14 -1
-28 2 -31 7 -3 4 -11 5 -17 1 -12 -8 -18 -9 -38 -12 -8 -1 -7 -7 2 -18 12 -14
12 -16 -1 -11 -8 3 -14 14 -13 24 1 18 1 18 -12 1 -10 -14 -14 -15 -19 -5 -3
7 -3 3 0 -10 5 -21 4 -21 -20 -11 -26 12 -35 29 -16 29 6 0 10 -5 10 -12 0
-20 11 -1 16 28 5 27 4 28 -9 10 -8 -10 -19 -16 -25 -12 -6 3 -14 1 -18 -5 -5
-8 -3 -9 7 -4 12 8 12 6 0 -8 -10 -13 -17 -15 -27 -6 -11 9 -14 8 -14 -1 0 -9
-7 -7 -22 6 -16 13 -19 14 -10 2 17 -21 0 -33 -27 -18 -14 7 -22 7 -26 -1 -4
-6 -13 -8 -20 -5 -7 2 -16 -2 -19 -10 -3 -9 -10 -13 -15 -9 -5 3 -12 1 -16 -5
-8 -13 -35 -13 -35 1 0 5 4 8 9 4 16 -10 22 14 10 37 -11 20 -10 21 2 11 9 -7
20 -8 28 -3 8 4 27 7 42 5 16 -2 31 0 34 5 3 5 16 7 29 4 13 -2 29 3 36 11 7
8 16 13 20 10 5 -3 12 -1 15 5 5 8 11 8 20 0 9 -7 16 -6 25 5 13 16 30 20 30
8z m295 -13 c-7 -11 30 -32 40 -22 3 4 20 7 36 8 19 0 26 -3 19 -10 -6 -6 -6
-15 2 -25 10 -13 10 -14 -2 -3 -8 6 -18 12 -23 12 -4 0 -5 -6 -1 -12 5 -9 2
-8 -10 1 -13 11 -14 16 -4 22 7 5 8 9 2 9 -18 0 -24 -12 -13 -26 6 -8 6 -14 0
-18 -12 -8 -41 3 -41 16 0 6 7 5 15 -2 13 -11 14 -10 9 4 -9 23 -23 20 -35 -8
-10 -21 -20 -24 -62 -17 -5 0 -6 5 -2 11 3 5 13 6 22 3 13 -5 15 -2 11 15 -4
14 -2 19 7 16 16 -7 29 12 15 21 -6 4 -8 11 -4 16 3 5 10 7 15 3 5 -3 7 -9 4
-14z m-912 -26 c-3 -15 -20 -15 -33 1 -11 13 -9 15 11 12 13 -2 23 -8 22 -13z
m-143 -2 c0 -2 -7 -10 -16 -19 -8 -9 -13 -22 -9 -31 4 -12 3 -13 -10 -2 -13
11 -19 10 -35 -5 -28 -26 -45 -9 -20 22 11 14 18 29 15 32 -2 4 14 7 35 7 22
0 40 -2 40 -4z m1200 -2 c0 -5 -5 -10 -11 -10 -5 0 -7 5 -4 10 3 6 8 10 11 10
2 0 4 -4 4 -10z m-365 -36 c-11 -9 -19 -20 -17 -25 1 -6 -2 -8 -7 -5 -4 3 -8
17 -8 31 0 21 2 23 13 14 8 -7 17 -9 21 -5 3 3 1 6 -6 6 -7 0 -9 5 -5 11 4 8
10 7 18 -1 8 -8 6 -15 -9 -26z m-755 16 c0 -5 -4 -10 -10 -10 -5 0 -10 5 -10
10 0 6 5 10 10 10 6 0 10 -4 10 -10z m800 1 c0 -6 -4 -13 -10 -16 -5 -3 -10 1
-10 9 0 9 5 16 10 16 6 0 10 -4 10 -9z m80 -1 c0 -5 -4 -10 -10 -10 -5 0 -10
5 -10 10 0 6 5 10 10 10 6 0 10 -4 10 -10z m-174 -37 c-7 -7 -26 7 -26 19 0 6
6 6 15 -2 9 -7 13 -15 11 -17z"/>
<path d="M3066 1604 c-9 -22 -8 -26 5 -18 8 4 8 0 0 -15 -13 -24 -23 -29 -15
-7 3 8 0 17 -7 22 -8 4 -10 3 -5 -4 4 -7 2 -12 -5 -12 -8 0 -9 -3 0 -13 12
-15 55 -17 68 -3 4 4 1 6 -7 4 -11 -2 -15 5 -14 30 1 34 -10 43 -20 16z"/>
<path d="M2755 1600 c-3 -5 1 -23 10 -40 12 -23 20 -29 28 -21 9 7 19 2 35
-14 22 -23 25 -24 48 -9 20 14 22 19 13 37 l-12 20 36 -21 c22 -13 39 -17 43
-11 4 6 12 5 22 -3 10 -8 13 -9 9 -1 -4 6 -2 15 4 18 5 4 8 13 5 21 -3 8 -1
14 5 14 6 0 7 5 4 10 -11 17 -26 0 -19 -22 6 -20 5 -19 -15 1 -25 25 -31 26
-56 7 -11 -8 -26 -11 -34 -8 -11 4 -13 1 -8 -14 7 -19 7 -19 -8 0 -8 11 -15
23 -15 27 0 4 -12 6 -27 4 -16 -2 -36 1 -45 6 -10 6 -19 5 -23 -1z m85 -32 c0
6 10 1 23 -11 19 -19 20 -24 7 -34 -12 -9 -20 -6 -43 15 -21 20 -30 24 -36 13
-6 -10 -10 -9 -15 5 -9 23 -2 28 25 14 20 -11 21 -10 15 6 -6 18 -5 18 9 0 8
-11 15 -15 15 -8z m125 10 c4 4 2 -3 -6 -15 -15 -25 -28 -22 -26 7 1 13 5 16
13 10 6 -6 14 -6 19 -2z"/>
<path d="M2835 1539 c10 -10 22 -16 27 -13 12 8 -6 27 -28 30 -14 2 -14 0 1
-17z"/>
<path d="M3184 1575 c-5 -13 -8 -14 -15 -3 -6 9 -9 9 -9 1 0 -14 18 -27 41
-28 10 -1 16 6 15 18 -1 26 -24 34 -32 12z"/>
<path d="M3230 1569 c0 -5 5 -7 10 -4 6 3 10 8 10 11 0 2 -4 4 -10 4 -5 0 -10
-5 -10 -11z"/>
<path d="M3265 1550 c-8 -13 19 -30 35 -20 8 5 11 12 7 16 -11 11 -36 14 -42
4z m35 -6 c0 -8 -19 -13 -24 -6 -3 5 1 9 9 9 8 0 15 -2 15 -3z"/>
<path d="M3416 1502 c-3 -5 1 -9 9 -9 8 0 12 4 9 9 -3 4 -7 8 -9 8 -2 0 -6 -4
-9 -8z"/>
<path d="M3775 1530 c-4 -6 -10 -8 -15 -5 -4 3 -14 -3 -21 -13 -7 -9 -9 -14
-5 -10 5 4 16 2 24 -5 10 -7 13 -8 9 -1 -8 14 16 37 28 26 5 -4 5 -1 1 6 -9
15 -13 15 -21 2z"/>
<path d="M3994 1505 c3 -23 12 -26 13 -5 1 11 -2 20 -7 20 -4 0 -7 -7 -6 -15z"/>
<path d="M3676 1501 c-3 -5 1 -11 9 -14 9 -4 12 -1 8 9 -6 16 -10 17 -17 5z"/>
<path d="M3610 1491 c0 -7 -4 -9 -10 -6 -5 3 -10 1 -10 -4 0 -6 4 -11 9 -11
13 0 25 20 17 27 -3 4 -6 1 -6 -6z"/>
<path d="M3630 1489 c0 -5 5 -7 10 -4 6 3 10 8 10 11 0 2 -4 4 -10 4 -5 0 -10
-5 -10 -11z"/>
<path d="M4130 1505 c-7 -9 -11 -17 -9 -20 3 -2 10 5 17 15 14 24 10 26 -8 5z"/>
<path d="M3045 1500 c-4 -6 -12 -7 -18 -4 -7 4 -8 3 -4 -1 13 -15 34 -14 34 1
0 17 -4 18 -12 4z"/>
<path d="M3006 1463 c-6 -14 -5 -15 5 -6 7 7 10 15 7 18 -3 3 -9 -2 -12 -12z"/>
<path d="M2275 1751 c-3 -5 -2 -12 3 -15 5 -3 9 1 9 9 0 17 -3 19 -12 6z"/>
<path d="M505 1610 c-3 -5 1 -10 9 -10 9 0 16 5 16 10 0 6 -4 10 -9 10 -6 0
-13 -4 -16 -10z"/>
<path d="M735 1610 c-3 -5 -13 -6 -23 -3 -15 6 -15 5 -3 -10 8 -10 14 -16 15
-15 1 2 8 11 15 21 7 9 11 17 8 17 -3 0 -8 -4 -12 -10z"/>
<path d="M883 1606 c3 -8 1 -17 -6 -20 -7 -3 -3 -5 8 -3 11 1 26 -2 33 -6 8
-5 12 -3 12 7 0 9 -7 16 -15 16 -8 0 -15 5 -15 10 0 6 -5 10 -11 10 -6 0 -9
-6 -6 -14z"/>
<path d="M1694 1612 c4 -6 -6 -18 -24 -27 -22 -12 -29 -20 -22 -28 6 -7 12
-16 14 -22 5 -17 52 -12 74 8 15 13 24 15 29 7 5 -7 11 -8 19 -1 13 11 47 8
68 -5 6 -4 8 -3 5 3 -4 6 0 13 8 17 8 3 17 1 20 -5 4 -5 11 -6 17 -3 6 4 8 3
5 -2 -8 -14 9 -38 21 -30 6 4 9 13 5 21 -6 17 1 19 26 6 14 -8 17 -6 16 11 -1
12 -7 24 -13 26 -8 2 -10 -3 -6 -15 4 -13 3 -15 -4 -4 -7 9 -12 10 -16 2 -4
-6 -12 -9 -17 -5 -5 3 -7 10 -3 15 3 5 10 7 15 4 16 -11 10 12 -8 26 -14 12
-16 12 -11 -1 3 -9 0 -24 -8 -35 -12 -16 -14 -16 -14 -3 0 13 -8 16 -32 13
-17 -3 -35 -10 -40 -17 -6 -10 -8 -10 -8 1 0 11 -3 11 -15 1 -12 -10 -15 -10
-15 1 0 12 -2 12 -9 1 -7 -11 -10 -10 -15 3 -3 9 -4 20 -2 24 3 4 -4 7 -14 8
-25 2 -35 -14 -20 -32 8 -9 8 -15 2 -15 -6 0 -13 6 -16 13 -3 6 -3 2 0 -10 6
-26 -1 -28 -35 -9 -20 11 -21 14 -7 19 10 4 15 3 11 -3 -3 -6 -2 -10 3 -10 15
0 33 48 20 56 -7 4 -8 3 -4 -4z m35 -66 c-23 -21 -23 -21 -6 0 10 12 15 29 11
40 -5 18 -5 18 6 0 10 -15 8 -22 -11 -40z m126 24 c-3 -5 -12 -10 -18 -10 -7
0 -6 4 3 10 19 12 23 12 15 0z"/>
<path d="M2030 1609 c0 -5 5 -7 10 -4 6 3 10 8 10 11 0 2 -4 4 -10 4 -5 0 -10
-5 -10 -11z"/>
<path d="M3986 1611 c-3 -5 2 -15 11 -22 15 -12 16 -12 10 6 -7 20 -7 20 8 1
8 -11 15 -25 15 -30 0 -6 -5 -4 -10 4 -6 10 -10 11 -10 3 0 -7 -5 -13 -11 -13
-5 0 -8 4 -4 9 7 13 -10 22 -27 16 -7 -3 -18 -13 -25 -23 -9 -15 -7 -18 9 -19
13 -1 18 3 14 12 -3 8 0 17 6 21 7 4 8 3 4 -4 -4 -7 -1 -13 6 -14 7 0 18 -2
23 -2 6 -1 16 -5 24 -10 10 -6 12 -5 7 2 -4 7 -2 12 4 12 6 0 9 4 6 9 -3 5 1
11 9 15 18 7 26 -5 20 -32 -2 -12 1 -25 7 -28 7 -5 9 0 6 14 -4 13 1 31 13 46
l19 24 -27 -2 c-16 -1 -34 -5 -41 -10 -8 -5 -20 -2 -31 8 -20 18 -28 20 -35 7z"/>
<path d="M4173 1605 c0 -10 6 -14 16 -10 11 3 9 0 -4 -11 -20 -16 -20 -16 3
-9 21 6 27 -2 23 -28 -1 -5 3 -5 9 -2 6 4 9 13 6 21 -3 8 0 11 9 7 8 -3 13 -9
10 -13 -6 -10 7 -20 35 -25 11 -2 19 1 17 8 -1 6 5 11 13 12 8 0 15 9 15 20 0
13 -5 19 -15 16 -46 -11 -81 -8 -104 10 -29 23 -33 23 -33 4z m127 -37 c0 -11
-22 -10 -39 1 -10 7 -7 9 12 8 15 -1 27 -5 27 -9z"/>
<path d="M435 1600 c-3 -5 -3 -14 0 -20 4 -6 -1 -7 -11 -3 -12 4 -15 3 -10 -5
4 -7 14 -12 22 -12 8 0 14 -10 14 -22 1 -21 2 -21 11 -5 8 14 14 16 25 6 12
-10 13 -9 8 5 -7 18 0 20 25 6 15 -8 18 -5 15 16 -2 19 1 23 10 15 7 -6 17 -7
21 -3 5 4 5 1 1 -6 -4 -7 -12 -10 -17 -7 -5 3 -6 -1 -3 -10 4 -9 9 -13 12 -11
3 3 12 0 20 -7 11 -8 14 -8 9 0 -4 6 -2 15 4 18 5 4 8 13 5 21 -3 8 -1 14 5
14 6 0 7 5 4 10 -11 17 -26 0 -19 -22 6 -20 5 -19 -15 1 -25 25 -30 26 -58 6
-14 -10 -24 -11 -28 -5 -11 18 -43 31 -50 20z m43 -29 c11 -7 11 -9 -1 -14
-16 -6 -27 0 -27 15 0 10 11 10 28 -1z"/>
<path d="M643 1595 c0 -6 6 -12 14 -12 7 0 13 4 13 9 0 5 5 6 10 3 6 -3 10 -2
10 3 0 5 -10 10 -23 10 -13 0 -24 -6 -24 -13z"/>
<path d="M1983 1582 c0 -10 9 -18 19 -18 24 0 23 13 -1 26 -16 8 -20 7 -18 -8z"/>
<path d="M1560 1579 c-12 -8 -9 -9 10 -5 25 6 25 6 3 -5 -13 -7 -23 -16 -23
-21 0 -5 -5 -6 -12 -2 -7 5 -8 3 -3 -5 5 -9 11 -9 17 -3 6 6 17 8 26 5 10 -4
13 -2 8 5 -4 7 0 15 9 18 13 6 14 8 3 15 -17 11 -20 11 -38 -2z"/>
<path d="M2075 1561 c-3 -5 -2 -12 3 -15 5 -3 9 1 9 9 0 17 -3 19 -12 6z"/>
<path d="M3475 1510 c-3 -5 -1 -10 4 -10 6 0 11 5 11 10 0 6 -2 10 -4 10 -3 0
-8 -4 -11 -10z"/>
<path d="M1194 1450 c0 -11 4 -20 8 -20 4 0 8 9 8 20 0 11 -4 20 -8 20 -4 0
-8 -9 -8 -20z"/>
<path d="M515 1450 c-4 -6 -1 -9 7 -8 7 2 12 -3 10 -11 -3 -12 0 -12 12 -1 9
7 16 18 16 24 0 6 -5 4 -10 -4 -6 -10 -10 -11 -10 -2 0 15 -16 16 -25 2z"/>
<path d="M1550 1450 c0 -5 5 -10 10 -10 6 0 10 5 10 10 0 6 -4 10 -10 10 -5 0
-10 -4 -10 -10z"/>
<path d="M3123 1449 c3 -9 0 -23 -6 -30 -8 -8 -5 -8 7 1 18 14 19 13 13 -2 -3
-10 -2 -18 3 -18 15 0 11 22 -7 45 -11 14 -14 15 -10 4z"/>
<path d="M3740 1450 c0 -5 5 -10 10 -10 6 0 10 5 10 10 0 6 -4 10 -10 10 -5 0
-10 -4 -10 -10z"/>
<path d="M4030 1450 c0 -5 5 -10 10 -10 6 0 10 5 10 10 0 6 -4 10 -10 10 -5 0
-10 -4 -10 -10z"/>
<path d="M915 1440 c-3 -5 -1 -10 4 -10 6 0 11 5 11 10 0 6 -2 10 -4 10 -3 0
-8 -4 -11 -10z"/>
<path d="M1720 1430 c-13 -8 -13 -10 2 -10 9 0 20 5 23 10 8 13 -5 13 -25 0z"/>
<path d="M1880 1430 c-12 -8 -9 -9 12 -8 15 1 24 6 22 10 -7 10 -16 10 -34 -2z"/>
<path d="M3090 1429 c0 -5 -3 -8 -7 -6 -5 3 -9 -6 -9 -20 -1 -13 -1 -23 0 -21
29 45 35 58 26 58 -5 0 -10 -5 -10 -11z"/>
<path d="M3637 1421 c14 -17 33 -20 33 -5 0 3 -4 3 -9 0 -5 -3 -11 1 -15 9 -3
8 -10 15 -16 15 -5 0 -2 -9 7 -19z"/>
<path d="M3760 1430 c-13 -8 -13 -10 2 -10 9 0 20 5 23 10 8 13 -5 13 -25 0z"/>
<path d="M3930 1430 c0 -5 5 -10 11 -10 5 0 7 -5 3 -12 -4 -7 -3 -8 5 -4 9 6
9 11 0 22 -14 17 -19 18 -19 4z"/>
<path d="M4113 1425 c-8 -22 5 -31 20 -15 9 10 9 11 0 6 -7 -4 -13 -3 -13 3 0
5 6 12 13 14 9 4 9 6 -1 6 -7 1 -15 -6 -19 -14z"/>
<path d="M1000 1424 c0 -6 7 -19 16 -30 14 -18 14 -18 3 6 -14 31 -19 36 -19
24z"/>
<path d="M1070 1421 c0 -7 -4 -9 -10 -6 -6 4 -7 -1 -3 -11 6 -15 7 -15 15 1 6
9 7 19 4 22 -3 4 -6 1 -6 -6z"/>
<path d="M1481 1425 c0 -5 3 -16 8 -23 7 -11 9 -10 14 3 4 9 3 14 -2 10 -5 -3
-12 1 -14 7 -3 7 -6 9 -6 3z"/>
<path d="M1692 1410 c0 -14 2 -19 5 -12 2 6 2 18 0 25 -3 6 -5 1 -5 -13z"/>
<path d="M1852 1410 c0 -14 2 -19 5 -12 2 6 2 18 0 25 -3 6 -5 1 -5 -13z"/>
<path d="M3052 1410 c0 -14 2 -19 5 -12 2 6 2 18 0 25 -3 6 -5 1 -5 -13z"/>
<path d="M3170 1415 c0 -8 4 -15 10 -15 5 0 7 7 4 15 -4 8 -8 15 -10 15 -2 0
-4 -7 -4 -15z"/>
<path d="M3292 1410 c0 -14 2 -19 5 -12 2 6 2 18 0 25 -3 6 -5 1 -5 -13z"/>
<path d="M3421 1414 c0 -11 3 -14 6 -6 3 7 2 16 -1 19 -3 4 -6 -2 -5 -13z"/>
<path d="M3590 1421 c0 -14 29 -21 36 -9 4 7 3 8 -4 4 -7 -4 -12 -2 -12 3 0 6
-4 11 -10 11 -5 0 -10 -4 -10 -9z"/>
<path d="M3730 1415 c0 -8 4 -15 10 -15 5 0 7 7 4 15 -4 8 -8 15 -10 15 -2 0
-4 -7 -4 -15z"/>
<path d="M3970 1415 c0 -8 4 -15 10 -15 5 0 7 7 4 15 -4 8 -8 15 -10 15 -2 0
-4 -7 -4 -15z"/>
<path d="M4030 1421 c0 -7 -4 -9 -10 -6 -6 4 -7 -1 -3 -11 6 -15 7 -15 15 1 6
9 7 19 4 22 -3 4 -6 1 -6 -6z"/>
<path d="M4150 1420 c0 -5 5 -10 11 -10 5 0 7 5 4 10 -3 6 -8 10 -11 10 -2 0
-4 -4 -4 -10z"/>
<path d="M620 1416 c0 -2 9 -6 20 -9 11 -3 18 -1 14 4 -5 9 -34 13 -34 5z"/>
<path d="M755 1411 c-6 -11 13 -26 22 -17 4 3 1 6 -6 6 -7 0 -9 5 -6 10 3 6 4
10 1 10 -3 0 -7 -4 -11 -9z"/>
<path d="M930 1410 c0 -5 5 -10 10 -10 6 0 10 5 10 10 0 6 -4 10 -10 10 -5 0
-10 -4 -10 -10z"/>
<path d="M1110 1410 c-8 -5 -10 -10 -5 -10 6 0 17 5 25 10 8 5 11 10 5 10 -5
0 -17 -5 -25 -10z"/>
<path d="M1210 1410 c0 -5 5 -10 10 -10 6 0 10 5 10 10 0 6 -4 10 -10 10 -5 0
-10 -4 -10 -10z"/>
<path d="M1330 1410 c0 -5 5 -10 10 -10 6 0 10 5 10 10 0 6 -4 10 -10 10 -5 0
-10 -4 -10 -10z"/>
<path d="M1430 1410 c8 -5 20 -10 25 -10 6 0 3 5 -5 10 -8 5 -19 10 -25 10 -5
0 -3 -5 5 -10z"/>
<path d="M1634 1412 c3 -6 0 -13 -6 -16 -7 -3 -2 -3 11 0 17 5 21 3 16 -6 -5
-9 -4 -11 3 -6 16 10 15 14 -9 27 -13 6 -19 7 -15 1z"/>
<path d="M2970 1410 c0 -5 5 -10 10 -10 6 0 10 5 10 10 0 6 -4 10 -10 10 -5 0
-10 -4 -10 -10z"/>
<path d="M3235 1410 c3 -6 1 -10 -6 -10 -7 0 -10 -3 -6 -6 3 -3 13 -2 22 4 16
8 16 9 1 15 -10 4 -15 3 -11 -3z"/>
<path d="M3472 1412 c-9 -6 -5 -12 15 -20 24 -11 26 -10 11 1 -10 8 -15 17
-11 20 9 9 1 8 -15 -1z"/>
<path d="M3550 1406 c7 -7 13 -7 20 0 6 6 3 10 -10 10 -13 0 -16 -4 -10 -10z"/>
<path d="M3912 1415 c4 -4 0 -14 -10 -22 -16 -12 -16 -13 2 -6 13 4 17 3 12
-5 -5 -8 -1 -10 10 -5 11 4 13 8 6 11 -7 2 -10 8 -7 12 3 5 0 12 -7 16 -7 4
-10 4 -6 -1z"/>
<path d="M1036 1397 c3 -10 9 -15 12 -12 3 3 0 11 -7 18 -10 9 -11 8 -5 -6z"/>
<path d="M1517 1403 c-10 -9 -9 -23 1 -23 5 0 9 7 9 15 0 17 -1 18 -10 8z"/>
<path d="M1588 1403 c7 -3 16 -2 19 1 4 3 -2 6 -13 5 -11 0 -14 -3 -6 -6z"/>
<path d="M1715 1399 c-4 -6 -5 -12 -2 -15 2 -3 7 2 10 11 7 17 1 20 -8 4z"/>
<path d="M3315 1399 c-4 -6 -5 -12 -2 -15 2 -3 7 2 10 11 7 17 1 20 -8 4z"/>
<path d="M3677 1403 c-13 -12 -7 -23 11 -22 10 0 12 3 4 6 -6 2 -10 9 -6 14 6
10 0 12 -9 2z"/>
<path d="M3875 1399 c-4 -6 -5 -12 -2 -15 2 -3 7 2 10 11 7 17 1 20 -8 4z"/>
<path d="M4060 1406 c0 -2 7 -7 16 -10 8 -3 12 -2 9 4 -6 10 -25 14 -25 6z"/>
<path d="M855 1390 c6 -10 3 -12 -11 -7 -18 7 -18 6 -2 -6 10 -8 15 -17 11
-21 -4 -4 1 -4 12 0 11 5 14 9 7 12 -7 2 -10 8 -7 12 3 5 0 12 -6 16 -8 5 -9
3 -4 -6z"/>
<path d="M1299 1398 c-7 -23 -3 -44 11 -44 9 0 16 8 16 17 0 11 -6 15 -15 11
-9 -3 -12 -1 -7 6 4 7 5 12 2 12 -3 0 -6 -1 -7 -2z"/>
<path d="M1470 1391 c0 -6 4 -13 10 -16 6 -3 7 1 4 9 -7 18 -14 21 -14 7z"/>
<path d="M1762 1375 c12 -14 24 -25 27 -25 3 0 0 5 -7 12 -16 16 -15 31 1 22
6 -4 9 -3 4 1 -4 5 -16 10 -27 12 -19 3 -19 2 2 -22z"/>
<path d="M3015 1391 c6 -11 4 -13 -9 -8 -10 4 -15 3 -11 -4 4 -5 1 -18 -6 -27
-12 -15 -12 -15 7 1 11 9 23 14 27 11 3 -3 4 1 3 10 -1 8 -6 19 -11 23 -4 5
-5 2 0 -6z"/>
<path d="M3110 1390 c8 -5 20 -10 25 -10 6 0 3 5 -5 10 -8 5 -19 10 -25 10 -5
0 -3 -5 5 -10z"/>
<path d="M3362 1375 c12 -14 24 -25 27 -25 3 0 0 5 -7 12 -16 16 -15 31 1 22
6 -4 9 -3 4 1 -4 5 -16 10 -27 12 -19 3 -19 2 2 -22z"/>
<path d="M3534 1392 c3 -5 0 -13 -6 -15 -9 -4 -10 -6 -1 -6 17 -1 25 16 12 25
-7 4 -9 3 -5 -4z"/>
<path d="M3579 1398 c-6 -22 -5 -39 3 -45 6 -3 8 -1 4 5 -3 5 0 13 6 15 10 4
10 6 0 6 -7 1 -10 6 -7 11 3 6 4 10 1 10 -3 0 -6 -1 -7 -2z"/>
<path d="M3750 1390 c-8 -5 -10 -10 -5 -10 6 0 17 5 25 10 8 5 11 10 5 10 -5
0 -17 -5 -25 -10z"/>
<path d="M3995 1390 c-3 -5 -1 -10 4 -10 6 0 11 5 11 10 0 6 -2 10 -4 10 -3 0
-8 -4 -11 -10z"/>
<path d="M4160 1396 c0 -2 7 -7 16 -10 8 -3 12 -2 9 4 -6 10 -25 14 -25 6z"/>
<path d="M629 1373 c-10 -12 -10 -15 -1 -9 7 4 20 2 30 -6 16 -12 16 -11 2 7
-8 11 -15 21 -16 23 -1 1 -7 -5 -15 -15z"/>
<path d="M920 1381 c0 -6 4 -13 10 -16 6 -3 7 1 4 9 -7 18 -14 21 -14 7z"/>
<path d="M1236 1374 c1 -6 -3 -18 -9 -25 -7 -7 -3 -6 9 4 11 9 24 14 29 10 4
-5 5 -2 1 5 -4 7 -11 10 -16 7 -4 -3 -10 -2 -13 2 -2 5 -3 3 -1 -3z"/>
<path d="M1821 1382 c-1 -7 -5 -10 -11 -7 -6 3 -7 -1 -3 -10 3 -9 9 -12 12 -7
3 5 14 8 24 6 9 -1 15 2 11 7 -3 5 -9 7 -14 4 -4 -3 -11 1 -13 7 -4 10 -6 10
-6 0z"/>
<path d="M3420 1379 c0 -5 -6 -7 -12 -3 -7 4 -9 3 -5 -1 13 -15 36 -14 30 1
-6 17 -13 18 -13 3z"/>
<path d="M3650 1376 c0 -8 4 -17 9 -20 5 -4 7 3 4 14 -6 23 -13 26 -13 6z"/>
<path d="M3958 1383 c7 -3 16 -2 19 1 4 3 -2 6 -13 5 -11 0 -14 -3 -6 -6z"/>
<path d="M4097 1371 c-4 -17 -3 -21 5 -13 5 5 8 16 6 23 -3 8 -7 3 -11 -10z"/>
<path d="M760 1365 c-7 -8 -9 -15 -5 -15 4 0 1 -8 -6 -17 -13 -16 -12 -17 3
-4 10 7 15 17 13 22 -3 4 3 12 12 18 10 6 13 11 7 11 -6 0 -17 -7 -24 -15z"/>
<path d="M895 1371 c-3 -5 -2 -12 3 -15 5 -3 9 1 9 9 0 17 -3 19 -12 6z"/>
<path d="M1056 1372 c-3 -5 1 -9 9 -9 8 0 12 4 9 9 -3 4 -7 8 -9 8 -2 0 -6 -4
-9 -8z"/>
<path d="M1119 1378 c-5 -18 -6 -38 -1 -34 7 8 12 36 6 36 -2 0 -4 -1 -5 -2z"/>
<path d="M1620 1370 c8 -5 20 -10 25 -10 6 0 3 5 -5 10 -8 5 -19 10 -25 10 -5
0 -3 -5 5 -10z"/>
<path d="M2919 1363 c-12 -16 -12 -17 2 -6 9 7 19 10 22 6 4 -3 7 -1 7 5 0 17
-16 15 -31 -5z"/>
<path d="M3090 1371 c0 -6 4 -12 8 -15 5 -3 9 1 9 9 0 8 -4 15 -9 15 -4 0 -8
-4 -8 -9z"/>
<path d="M3220 1370 c8 -5 20 -10 25 -10 6 0 3 5 -5 10 -8 5 -19 10 -25 10 -5
0 -3 -5 5 -10z"/>
<path d="M3476 1363 c-6 -14 -5 -15 5 -6 7 7 10 15 7 18 -3 3 -9 -2 -12 -12z"/>
<path d="M3773 1365 c0 -8 4 -12 9 -9 4 3 8 9 8 15 0 5 -4 9 -8 9 -5 0 -9 -7
-9 -15z"/>
<path d="M4016 1363 c-6 -14 -5 -15 5 -6 7 7 10 15 7 18 -3 3 -9 -2 -12 -12z"/>
<path d="M4158 1369 c14 -5 20 -13 16 -20 -4 -8 -3 -9 5 -5 16 10 -5 36 -28
35 -10 0 -8 -3 7 -10z"/>
<path d="M789 1353 c-13 -16 -12 -17 4 -4 9 7 17 15 17 17 0 8 -8 3 -21 -13z"/>
<path d="M1190 1360 c-11 -7 -11 -10 -2 -10 8 0 10 -5 6 -12 -4 -7 -3 -9 1 -5
7 6 17 37 12 37 -1 0 -9 -5 -17 -10z"/>
<path d="M1348 1358 c-7 -17 15 -19 29 -3 4 4 3 5 -4 2 -6 -4 -13 -2 -15 5 -3
8 -6 6 -10 -4z"/>
<path d="M1714 1356 c1 -8 5 -18 8 -22 4 -3 5 1 4 10 -1 8 -5 18 -8 22 -4 3
-5 -1 -4 -10z"/>
<path d="M3314 1356 c1 -8 5 -18 8 -22 4 -3 5 1 4 10 -1 8 -5 18 -8 22 -4 3
-5 -1 -4 -10z"/>
<path d="M705 1349 c-3 -4 2 -6 10 -5 21 3 28 13 10 13 -9 0 -18 -4 -20 -8z"/>
<path d="M1148 1353 c7 -3 16 -2 19 1 4 3 -2 6 -13 5 -11 0 -14 -3 -6 -6z"/>
<path d="M1393 1337 c-1 -11 -1 -18 0 -16 2 2 8 11 15 20 9 12 9 16 -1 16 -7
0 -14 -9 -14 -20z"/>
<path d="M1487 1349 c7 -7 15 -10 18 -7 3 3 -2 9 -12 12 -14 6 -15 5 -6 -5z"/>
<path d="M1540 1350 c-9 -6 -10 -10 -3 -10 6 0 15 5 18 10 8 12 4 12 -15 0z"/>
<path d="M1600 1350 c-9 -6 -10 -10 -3 -10 6 0 15 5 18 10 8 12 4 12 -15 0z"/>
<path d="M1664 1352 c4 -3 14 -7 22 -8 9 -1 13 0 10 4 -4 3 -14 7 -22 8 -9 1
-13 0 -10 -4z"/>
<path d="M1740 1356 c0 -2 8 -10 18 -17 15 -13 16 -12 3 4 -13 16 -21 21 -21
13z"/>
<path d="M3060 1356 c0 -2 8 -10 18 -17 15 -13 16 -12 3 4 -13 16 -21 21 -21
13z"/>
<path d="M3264 1352 c4 -3 14 -7 22 -8 9 -1 13 0 10 4 -4 3 -14 7 -22 8 -9 1
-13 0 -10 -4z"/>
<path d="M3340 1356 c0 -2 8 -10 18 -17 15 -13 16 -12 3 4 -13 16 -21 21 -21
13z"/>
<path d="M3501 1351 c-10 -7 -7 -9 12 -8 14 1 23 5 20 10 -6 9 -15 9 -32 -2z"/>
<path d="M3620 1356 c0 -2 8 -10 18 -17 15 -13 16 -12 3 4 -13 16 -21 21 -21
13z"/>
<path d="M3800 1350 c-9 -6 -10 -10 -3 -10 6 0 15 5 18 10 8 12 4 12 -15 0z"/>
<path d="M3867 1349 c7 -7 15 -10 18 -7 3 3 -2 9 -12 12 -14 6 -15 5 -6 -5z"/>
<path d="M4039 1343 c-13 -16 -12 -17 4 -4 9 7 17 15 17 17 0 8 -8 3 -21 -13z"/>
<path d="M930 1347 c0 -2 6 -10 14 -16 11 -9 16 -9 22 1 4 7 4 10 -1 6 -4 -4
-14 -3 -22 3 -7 6 -13 9 -13 6z"/>
<path d="M1062 1334 c10 -10 20 -16 22 -13 3 3 -5 11 -17 18 -21 13 -21 12 -5
-5z"/>
<path d="M3135 1339 c-4 -6 -5 -12 -2 -15 2 -3 7 2 10 11 7 17 1 20 -8 4z"/>
<path d="M3229 1333 c-13 -16 -12 -17 4 -4 9 7 17 15 17 17 0 8 -8 3 -21 -13z"/>
<path d="M3410 1347 c0 -2 6 -10 14 -16 11 -9 16 -9 22 1 4 7 4 10 -1 6 -4 -4
-14 -3 -22 3 -7 6 -13 9 -13 6z"/>
<path d="M1281 1326 c-9 -11 -9 -16 1 -22 7 -4 10 -4 6 1 -4 4 -3 14 3 22 6 7
9 13 6 13 -2 0 -10 -6 -16 -14z"/>
<path d="M1826 1328 c3 -5 10 -6 15 -3 13 9 11 12 -6 12 -8 0 -12 -4 -9 -9z"/>
<path d="M3055 1321 c-3 -5 -2 -12 3 -15 5 -3 9 1 9 9 0 17 -3 19 -12 6z"/>
<path d="M1010 1309 c0 -5 5 -7 10 -4 6 3 10 8 10 11 0 2 -4 4 -10 4 -5 0 -10
-5 -10 -11z"/>
<path d="M1655 1310 c3 -5 8 -10 11 -10 2 0 4 5 4 10 0 6 -5 10 -11 10 -5 0
-7 -4 -4 -10z"/>
<path d="M1695 1310 c3 -5 8 -10 11 -10 2 0 4 5 4 10 0 6 -5 10 -11 10 -5 0
-7 -4 -4 -10z"/>
<path d="M3255 1310 c3 -5 8 -10 11 -10 2 0 4 5 4 10 0 6 -5 10 -11 10 -5 0
-7 -4 -4 -10z"/>
<path d="M3295 1310 c3 -5 8 -10 11 -10 2 0 4 5 4 10 0 6 -5 10 -11 10 -5 0
-7 -4 -4 -10z"/>
<path d="M3690 1309 c0 -5 5 -7 10 -4 6 3 10 8 10 11 0 2 -4 4 -10 4 -5 0 -10
-5 -10 -11z"/>
<path d="M3930 1309 c0 -5 5 -7 10 -4 6 3 10 8 10 11 0 2 -4 4 -10 4 -5 0 -10
-5 -10 -11z"/>
<path d="M4120 1310 c-9 -6 -10 -10 -3 -10 6 0 15 5 18 10 8 12 4 12 -15 0z"/>
<path d="M3437 1303 c-10 -9 -9 -23 1 -23 5 0 9 7 9 15 0 17 -1 18 -10 8z"/>
<path d="M1520 1290 c-9 -6 -10 -10 -3 -10 6 0 15 5 18 10 8 12 4 12 -15 0z"/>
<path d="M3506 1288 c3 -5 10 -6 15 -3 13 9 11 12 -6 12 -8 0 -12 -4 -9 -9z"/>
<path d="M775 1250 c3 -5 8 -10 11 -10 2 0 4 5 4 10 0 6 -5 10 -11 10 -5 0 -7
-4 -4 -10z"/>
<path d="M3106 1252 c-3 -5 1 -9 9 -9 8 0 12 4 9 9 -3 4 -7 8 -9 8 -2 0 -6 -4
-9 -8z"/>
<path d="M856 1217 c3 -10 9 -15 12 -12 3 3 0 11 -7 18 -10 9 -11 8 -5 -6z"/>
<path d="M1635 1210 c3 -5 8 -10 11 -10 2 0 4 5 4 10 0 6 -5 10 -11 10 -5 0
-7 -4 -4 -10z"/>
<path d="M3890 1189 c0 -5 5 -7 10 -4 6 3 10 8 10 11 0 2 -4 4 -10 4 -5 0 -10
-5 -10 -11z"/>
<path d="M1008 1162 c9 -10 19 -17 21 -16 6 5 -20 34 -30 34 -5 0 -1 -8 9 -18z"/>
<path d="M1479 1163 c-13 -16 -12 -17 4 -4 16 13 21 21 13 21 -2 0 -10 -8 -17
-17z"/>
<path d="M3306 1172 c-3 -5 1 -9 9 -9 8 0 15 4 15 9 0 4 -4 8 -9 8 -6 0 -12
-4 -15 -8z"/>
<path d="M3830 1171 c0 -6 4 -12 8 -15 5 -3 9 1 9 9 0 8 -4 15 -9 15 -4 0 -8
-4 -8 -9z"/>
<path d="M1436 1153 c-6 -14 -5 -15 5 -6 7 7 10 15 7 18 -3 3 -9 -2 -12 -12z"/>
<path d="M1313 1148 c1 -7 -4 -12 -11 -10 -8 1 -11 -2 -7 -8 5 -8 11 -8 21 1
7 6 11 15 8 20 -8 13 -14 11 -11 -3z"/>
<path d="M1370 1150 c0 -5 5 -10 11 -10 5 0 7 5 4 10 -3 6 -8 10 -11 10 -2 0
-4 -4 -4 -10z"/>
<path d="M3467 1149 c7 -7 15 -10 18 -7 3 3 -2 9 -12 12 -14 6 -15 5 -6 -5z"/>
<path d="M3715 1151 c-3 -5 -2 -12 3 -15 5 -3 9 1 9 9 0 17 -3 19 -12 6z"/>
<path d="M1213 1135 c0 -8 4 -15 9 -15 4 0 8 4 8 9 0 6 -4 12 -8 15 -5 3 -9
-1 -9 -9z"/>
<path d="M236 1093 c-11 -11 -6 -24 6 -17 8 5 9 2 5 -9 -4 -10 0 -20 10 -25
10 -6 12 -12 5 -16 -6 -3 -13 -2 -17 4 -8 13 -25 13 -25 0 0 -5 5 -9 11 -7 6
1 14 -4 16 -11 3 -7 -1 -10 -9 -7 -11 5 -14 -3 -13 -33 1 -21 5 -44 10 -52 5
-7 4 -11 -1 -7 -6 3 -11 -65 -12 -169 -3 -161 -2 -174 15 -175 56 -4 79 -3 89
3 12 8 12 317 0 337 -4 6 -2 11 4 11 6 0 9 4 5 10 -3 5 -13 7 -23 4 -9 -3 -6
2 8 11 14 9 17 14 8 11 -15 -4 -16 -2 -6 14 10 15 9 23 -7 41 l-20 22 23 -12
c21 -11 23 -11 14 6 -5 10 -8 26 -7 36 2 9 -1 17 -6 17 -5 0 -9 -5 -9 -11 0
-5 -5 -7 -10 -4 -6 4 -7 12 -4 18 4 7 4 9 -1 5 -4 -4 -15 -2 -24 4 -9 7 0 -5
19 -26 25 -28 29 -35 13 -27 -12 6 -30 22 -41 36 -11 13 -22 21 -26 18z m58
-68 c26 -33 26 -36 10 -60 -9 -14 -21 -22 -26 -19 -6 4 -8 -1 -4 -14 4 -11 2
-23 -3 -27 -7 -4 -8 1 -4 11 5 12 3 15 -6 9 -10 -6 -11 -3 -1 14 6 12 15 19
19 16 13 -7 21 20 10 36 -8 13 -13 6 -10 -13 0 -4 -7 -4 -16 -1 -11 4 -14 3
-9 -5 4 -7 2 -12 -4 -12 -6 0 -8 -6 -4 -12 4 -7 3 -10 -1 -5 -10 8 -15 48 -6
42 4 -2 14 10 23 26 16 27 16 29 0 39 -9 5 -12 10 -6 10 7 0 24 -16 38 -35z
m6 -129 c0 -2 -8 -10 -17 -17 -16 -13 -17 -12 -4 4 13 16 21 21 21 13z m10
-42 c0 -8 -19 -13 -24 -6 -3 5 1 9 9 9 8 0 15 -2 15 -3z"/>
<path d="M266 1004 c-5 -14 -4 -15 8 -5 11 10 17 8 25 -6 6 -10 11 -13 11 -7
0 11 -20 34 -31 34 -4 0 -10 -7 -13 -16z"/>
<path d="M2194 1066 c1 -6 5 -16 9 -23 4 -6 3 -14 -3 -18 -5 -3 -10 -1 -10 6
0 7 -2 10 -5 7 -11 -11 7 -37 25 -35 10 1 17 4 15 7 -2 3 5 6 15 6 10 0 16 -5
13 -10 -4 -5 0 -6 8 -1 8 5 7 1 -3 -10 -15 -16 -19 -16 -34 -4 -15 13 -16 12
-9 -11 7 -25 7 -25 -10 -5 -14 17 -16 17 -11 3 3 -10 1 -18 -5 -18 -6 0 -7 -6
-3 -12 4 -7 -2 -5 -13 5 -20 17 -21 17 -28 0 -5 -10 -7 -22 -6 -26 1 -5 -3 -6
-9 -2 -8 5 -8 11 0 20 8 9 7 14 -3 18 -10 4 -14 -2 -13 -16 1 -12 -1 -32 -5
-43 -7 -20 -4 -22 27 -23 62 -3 64 -4 54 -16 -5 -7 -7 -15 -3 -18 3 -4 1 -7
-6 -7 -7 0 -9 -5 -4 -12 4 -7 6 -68 5 -135 -4 -120 -3 -123 18 -123 12 0 19
-4 15 -9 -3 -5 -1 -13 5 -16 6 -4 9 -1 8 6 -2 7 5 15 14 17 14 3 16 -1 11 -14
-5 -14 -2 -13 15 4 20 20 22 33 22 128 0 81 -3 104 -12 98 -10 -6 -10 -4 0 7
6 7 12 27 12 45 0 18 -6 35 -12 38 -7 3 2 5 20 3 31 -3 42 6 22 18 -13 8 -3
25 13 25 7 0 6 -4 -3 -10 -14 -9 -13 -11 9 -14 5 0 13 -4 17 -8 14 -15 22 -8
20 17 0 16 -6 23 -13 20 -7 -2 -13 0 -13 5 0 6 6 10 13 10 8 0 14 6 14 13 0 8
-6 14 -13 14 -7 0 -15 -6 -18 -14 -7 -18 -36 -16 -36 3 0 8 -5 12 -10 9 -7 -4
-6 -13 1 -27 9 -16 8 -19 -2 -13 -9 6 -11 3 -6 -9 4 -10 3 -15 -4 -11 -5 4 -7
16 -3 27 4 13 2 18 -4 14 -12 -7 -23 19 -16 39 4 8 11 12 18 8 6 -4 5 1 -3 10
-7 9 -9 17 -4 17 16 0 12 38 -5 51 -14 11 -15 11 -4 -1 6 -8 12 -19 12 -24 -1
-6 -8 -2 -18 9 -18 21 -71 30 -68 11z m54 -12 c28 -20 28 -32 0 -30 -13 1 -30
-3 -38 -8 -13 -9 -13 -9 -2 6 9 11 10 18 2 23 -11 7 -5 25 8 25 4 0 18 -7 30
-16z m-3 -94 c3 -5 1 -10 -4 -10 -6 0 -11 5 -11 10 0 6 2 10 4 10 3 0 8 -4 11
-10z m12 -26 c-3 -3 -12 -4 -19 -1 -8 3 -5 6 6 6 11 1 17 -2 13 -5z m-50 -10
c-3 -3 -12 -4 -19 -1 -8 3 -5 6 6 6 11 1 17 -2 13 -5z m-37 -14 c0 -5 -4 -10
-10 -10 -5 0 -10 5 -10 10 0 6 5 10 10 10 6 0 10 -4 10 -10z"/>
<path d="M2220 1051 c0 -10 19 -25 25 -20 1 2 -3 10 -11 17 -8 7 -14 8 -14 3z"/>
<path d="M4076 1068 c3 -4 1 -8 -4 -8 -5 0 -8 -20 -7 -45 1 -47 -4 -53 -47
-50 -15 1 -25 -2 -22 -7 3 -4 -1 -8 -8 -9 -7 0 -4 -4 7 -9 18 -8 18 -9 2 -9
-14 -1 -17 -6 -12 -23 8 -27 25 -47 25 -31 0 6 9 9 20 6 11 -3 20 0 20 6 0 6
3 11 8 11 4 0 7 -18 8 -39 0 -22 -2 -38 -5 -36 -4 2 -5 -55 -3 -126 3 -134 2
-131 47 -131 67 0 62 -11 61 133 -1 72 2 136 6 142 4 7 -2 21 -13 33 -15 16
-16 21 -5 21 8 0 13 -4 10 -9 -8 -13 51 -9 65 5 11 10 12 9 6 -2 -5 -9 -3 -12
6 -9 9 3 13 16 11 39 -5 46 -11 53 -29 32 -8 -10 -12 -13 -9 -7 3 7 0 14 -8
17 -8 3 -17 -1 -20 -9 -3 -8 -11 -14 -18 -13 -9 0 -10 2 -1 5 7 3 9 12 6 21
-5 13 -8 12 -17 -6 l-12 -21 -21 20 c-12 11 -24 16 -28 11 -3 -5 6 -18 21 -28
23 -17 23 -19 5 -19 -11 0 -18 3 -15 7 2 4 -1 9 -7 11 -5 2 -12 16 -13 30 -2
15 1 25 6 22 5 -3 8 -2 7 3 -4 16 13 43 23 37 6 -4 6 -9 -2 -14 -9 -5 -9 -9
-1 -14 6 -4 11 -1 11 6 0 10 3 9 9 -2 13 -20 2 -34 -15 -19 -17 14 -19 -2 -2
-19 16 -16 28 -15 28 3 0 8 6 15 13 15 8 0 7 4 -3 10 -13 9 -13 11 0 21 13 9
12 10 -2 5 -21 -6 -34 10 -13 18 8 3 12 12 9 21 -5 11 -10 13 -19 5 -9 -7 -15
-7 -19 -1 -4 5 -15 9 -26 8 -10 -1 -16 -5 -14 -9z m39 -8 c3 -5 13 -6 23 -3 9
3 14 3 10 -1 -5 -7 -27 -13 -51 -15 -5 -1 -6 -5 -3 -10 3 -5 -1 -14 -9 -21
-10 -9 -15 -9 -15 -1 0 6 6 11 13 11 8 0 7 4 -3 10 -10 6 -11 10 -2 10 6 0 11
3 11 8 -4 22 14 31 26 12z m-75 -106 c0 -8 -19 -13 -24 -6 -3 5 1 9 9 9 8 0
15 -2 15 -3z m35 -4 c3 -5 2 -10 -4 -10 -5 0 -13 5 -16 10 -3 6 -2 10 4 10 5
0 13 -4 16 -10z m-25 -20 c0 -5 -8 -10 -17 -10 -15 0 -16 2 -3 10 19 12 20 12
20 0z m170 -6 c0 -2 -7 -4 -15 -4 -8 0 -15 4 -15 10 0 5 7 7 15 4 8 -4 15 -8
15 -10z m-135 -4 c-3 -5 -1 -10 6 -10 7 0 10 -2 7 -5 -3 -3 -13 -2 -22 1 -14
5 -15 9 -4 15 17 11 20 11 13 -1z m95 -6 c0 -2 -7 -4 -15 -4 -8 0 -15 4 -15
10 0 5 7 7 15 4 8 -4 15 -8 15 -10z m-170 -4 c0 -5 -2 -10 -4 -10 -3 0 -8 5
-11 10 -3 6 -1 10 4 10 6 0 11 -4 11 -10z m114 -30 c-6 -6 -10 -3 -10 10 0 13
4 16 10 10 7 -7 7 -13 0 -20z m26 -26 c0 -8 -19 -13 -24 -6 -3 5 1 9 9 9 8 0
15 -2 15 -3z"/>
<path d="M1457 968 c-9 -5 -17 -6 -17 -2 0 4 -7 -1 -16 -12 -8 -10 -13 -13 -9
-6 3 6 2 12 -3 12 -12 0 -72 -30 -72 -36 0 -3 4 -3 8 0 4 2 14 0 22 -5 13 -9
13 -10 0 -8 -33 3 -39 -3 -49 -53 -12 -65 -10 -208 4 -226 6 -7 15 -19 22 -26
7 -8 9 -17 5 -21 -4 -4 -2 -6 3 -5 20 4 36 0 31 -8 -3 -5 5 -8 17 -7 12 1 25
-3 30 -9 5 -8 10 -7 16 3 7 11 9 11 14 0 3 -8 6 -9 6 -3 1 8 12 9 36 4 24 -5
35 -4 35 4 0 6 5 4 10 -4 5 -8 10 -10 10 -4 0 6 8 11 18 11 71 0 72 0 72 46
l0 42 -91 -4 c-108 -4 -139 8 -139 50 0 36 17 46 36 23 12 -16 13 -16 8 -2 -4
13 0 16 15 15 15 -1 20 -6 16 -17 -3 -9 1 -7 10 5 16 21 21 21 44 2 9 -7 12
-7 8 -1 -4 6 10 10 38 10 24 0 41 -4 38 -9 -3 -4 4 -3 15 4 15 10 19 22 17 63
-5 107 -35 164 -88 168 -12 0 -34 2 -48 3 -15 1 -33 4 -41 7 -8 3 -22 2 -31
-4z m17 -13 c-4 -8 -11 -12 -16 -9 -6 4 -5 10 3 15 19 12 19 11 13 -6z m21
-15 c-13 -14 -14 -20 -5 -20 7 0 11 -2 8 -5 -3 -3 -12 -3 -21 1 -14 5 -14 7 1
24 9 10 21 19 26 19 5 1 1 -8 -9 -19z m55 16 c0 -3 -4 -8 -10 -11 -5 -3 -10
-1 -10 4 0 6 5 11 10 11 6 0 10 -2 10 -4z m32 -13 c-6 -2 -10 -8 -8 -12 3 -4
-4 -7 -15 -7 -19 0 -19 1 -3 13 10 7 23 13 28 12 6 0 5 -3 -2 -6z m-162 -19
c0 -2 -7 -4 -15 -4 -8 0 -15 4 -15 10 0 5 7 7 15 4 8 -4 15 -8 15 -10z m111
-6 c11 -21 11 -22 -4 -9 -10 7 -17 17 -17 22 0 15 9 10 21 -13z m79 -3 c5 3
11 2 14 -3 2 -4 -6 -8 -19 -8 -16 0 -21 4 -17 15 4 10 7 11 10 3 2 -7 8 -10
12 -7z m-160 -4 c0 -6 -4 -12 -8 -15 -5 -3 -9 1 -9 9 0 8 4 15 9 15 4 0 8 -4
8 -9z m61 -23 c1 -7 1 -17 0 -21 -1 -5 3 -6 9 -2 6 3 8 11 5 16 -4 5 -2 9 4 9
5 0 13 -5 16 -11 4 -6 14 -8 22 -4 12 4 13 2 6 -7 -13 -16 -13 -48 -1 -48 5 0
6 -4 3 -10 -3 -5 -42 -10 -87 -10 -66 0 -78 2 -69 13 6 8 8 17 4 21 -4 3 -7
15 -8 25 -1 18 3 20 50 23 14 1 25 6 25 10 0 13 20 9 21 -4z"/>
<path d="M1894 972 c6 -9 1 -11 -18 -8 -14 3 -26 0 -26 -5 0 -5 -5 -9 -11 -9
-5 0 -7 5 -4 10 3 6 2 10 -3 10 -6 0 -12 -7 -16 -15 -3 -8 -11 -15 -18 -15 -9
0 -8 3 2 10 11 7 11 10 2 10 -7 0 -17 -10 -22 -22 -5 -14 -9 -17 -10 -8 -1 13
-2 13 -9 0 -5 -8 -12 -26 -16 -39 -6 -18 -4 -22 6 -15 11 6 12 5 2 -7 -7 -9
-10 -31 -7 -54 3 -22 5 -45 6 -52 1 -7 5 -10 10 -7 4 3 8 0 8 -6 0 -6 5 -8 10
-5 9 6 14 -8 11 -28 -1 -5 3 -6 9 -2 6 3 7 11 4 17 -5 7 -2 8 5 3 7 -4 34 -9
59 -11 26 -3 56 -6 66 -7 13 -1 21 -11 23 -29 5 -35 -17 -41 -127 -36 l-80 3
0 -42 c0 -41 1 -43 33 -45 17 0 37 -2 42 -3 6 -2 18 -3 28 -4 10 0 16 -5 13
-9 -3 -5 1 -9 8 -9 8 0 12 6 9 13 -3 8 2 11 16 7 12 -3 18 -10 14 -17 -4 -6 1
-5 11 3 9 8 29 16 44 17 63 7 92 44 92 118 0 59 -16 99 -45 113 -19 8 -25 8
-25 0 0 -8 -3 -8 -8 -2 -8 12 -24 16 -78 19 -23 2 -46 6 -51 9 -9 5 -10 31 -4
58 2 8 94 5 108 -4 9 -5 11 -3 7 6 -3 8 2 14 11 14 11 0 14 -7 10 -21 -5 -18
-4 -18 4 -4 7 10 19 14 32 11 21 -6 21 -5 4 23 -10 16 -11 21 -2 12 13 -16 14
-15 13 12 -1 34 0 34 -26 18 -16 -10 -22 -10 -32 1 -11 11 -9 12 10 6 12 -3
22 -2 22 2 0 5 -16 9 -35 10 -40 1 -41 0 -20 -20 13 -13 13 -16 -1 -21 -8 -3
-13 -2 -10 2 2 4 -2 16 -10 27 -8 10 -14 15 -14 11 0 -5 -8 -2 -17 5 -12 10
-15 11 -9 1z m-17 -29 c-9 -2 -15 -9 -12 -14 4 -5 1 -9 -4 -9 -12 0 -14 13 -4
23 3 4 13 6 22 6 13 -1 12 -2 -2 -6z m30 -15 c-3 -8 -6 -5 -6 6 -1 11 2 17 5
13 3 -3 4 -12 1 -19z m-116 -21 c-10 -9 -11 -8 -5 6 3 10 9 15 12 12 3 -3 0
-11 -7 -18z m96 -2 c0 -8 -4 -12 -9 -9 -5 3 -6 10 -3 15 9 13 12 11 12 -6z
m-53 -17 c-4 -5 -9 -7 -12 -4 -3 3 -12 0 -21 -7 -14 -10 -14 -10 -4 4 13 16
46 23 37 7z"/>
<path d="M2270 970 c0 -5 5 -10 10 -10 6 0 10 5 10 10 0 6 -4 10 -10 10 -5 0
-10 -4 -10 -10z"/>
<path d="M2650 971 c0 -6 -6 -8 -12 -6 -18 7 -80 -33 -73 -45 4 -6 11 -7 17
-4 7 4 8 2 4 -4 -8 -13 -36 -5 -37 12 -1 6 -2 18 -3 26 -1 13 -17 16 -78 11
-15 -1 -17 -17 -19 -148 -2 -193 -1 -235 6 -241 10 -10 94 -8 98 3 2 5 2 56 1
113 -1 69 2 102 10 102 7 0 8 3 1 8 -24 16 -3 73 29 78 63 10 79 7 72 -12 -3
-8 -2 -13 3 -10 5 3 12 -1 15 -10 4 -10 2 -13 -6 -8 -7 5 -8 3 -3 -5 4 -7 6
-68 6 -136 -1 -68 2 -125 6 -128 4 -2 28 -2 53 2 l45 6 1 139 c1 158 5 166 79
166 49 0 44 16 46 -172 1 -147 -1 -140 54 -140 60 0 57 -10 54 145 -4 198 -14
233 -76 252 -19 5 -22 3 -17 -12 5 -16 4 -16 -10 1 -9 11 -16 16 -16 10 0 -5
-5 -2 -10 6 -5 8 -10 10 -10 4 0 -6 -11 -11 -25 -11 -37 0 -57 -20 -44 -45 9
-17 8 -18 -12 -6 -13 7 -31 22 -41 33 -15 17 -19 18 -27 5 -5 -8 -7 -18 -4
-24 3 -5 1 -6 -5 -2 -5 3 -12 3 -15 -1 -2 -5 -2 -2 -1 5 2 6 -1 12 -6 12 -6 0
-10 5 -10 11 0 8 6 7 17 -2 14 -12 16 -12 11 1 -2 8 -14 15 -25 16 -11 1 -25
4 -32 8 -6 4 -11 3 -11 -3z m-160 -21 c0 -5 -8 -10 -17 -10 -15 0 -16 2 -3 10
19 12 20 12 20 0z m153 -8 c14 -15 15 -19 2 -19 -8 0 -12 4 -9 8 2 4 0 10 -6
14 -5 3 -10 -2 -10 -11 0 -10 -3 -15 -6 -11 -6 6 2 37 9 37 2 0 11 -8 20 -18z
m32 8 c3 -5 2 -10 -4 -10 -5 0 -13 5 -16 10 -3 6 -2 10 4 10 5 0 13 -4 16 -10z
m-165 -43 c-8 -9 -9 -7 -4 7 5 13 4 17 -4 12 -8 -5 -10 -2 -5 10 6 15 7 15 16
-1 6 -11 5 -21 -3 -28z m317 21 c-3 -8 -6 -5 -6 6 -1 11 2 17 5 13 3 -3 4 -12
1 -19z m35 15 c-6 -2 -9 -10 -6 -15 4 -7 2 -8 -5 -4 -13 9 -5 26 12 25 9 0 8
-2 -1 -6z m46 -11 c2 -7 -1 -12 -8 -12 -6 0 -9 4 -6 9 4 5 1 12 -4 14 -6 3 -5
4 2 3 6 -1 14 -8 16 -14z m39 -4 c-3 -8 -6 -5 -6 6 -1 11 2 17 5 13 3 -3 4
-12 1 -19z m-76 -21 c-10 -9 -11 -8 -5 6 3 10 9 15 12 12 3 -3 0 -11 -7 -18z
m-386 4 c3 -5 0 -13 -6 -17 -7 -4 -9 -3 -5 4 3 5 0 13 -6 15 -9 4 -10 6 -1 6
6 1 14 -3 18 -8z m259 -3 c-5 -7 -2 -9 8 -6 9 4 15 0 15 -8 0 -8 -3 -12 -5 -9
-3 3 -10 0 -17 -5 -8 -7 -11 -3 -9 13 3 27 3 27 10 27 3 0 2 -5 -2 -12z m181
3 c-3 -5 -1 -12 5 -16 5 -3 10 -1 10 6 0 7 3 10 6 6 3 -3 3 -11 -1 -17 -5 -8
-11 -8 -21 1 -12 10 -11 29 2 29 3 0 3 -4 -1 -9z m-278 -7 c-3 -3 -12 -4 -19
-1 -8 3 -5 6 6 6 11 1 17 -2 13 -5z m-97 -8 c0 -3 -4 -8 -10 -11 -5 -3 -10 -1
-10 4 0 6 5 11 10 11 6 0 10 -2 10 -4z"/>
<path d="M3252 969 c-13 -5 -29 -6 -34 -3 -7 5 -9 -3 -4 -22 4 -19 3 -24 -2
-15 -8 11 -11 11 -16 0 -3 -8 -3 -4 0 8 4 20 3 21 -20 10 -29 -14 -42 -36 -55
-94 -6 -32 -6 -41 3 -36 8 5 8 3 0 -8 -14 -17 -11 -142 4 -180 6 -15 28 -35
54 -48 24 -11 42 -24 40 -27 -2 -3 0 -9 4 -12 4 -4 4 -1 0 6 -8 13 0 15 53 12
18 -1 65 1 102 5 l69 7 0 42 0 41 -105 0 c-114 0 -123 4 -121 53 1 28 20 36
44 19 8 -6 17 -5 27 3 12 10 15 10 15 -1 0 -11 2 -11 10 1 9 13 10 13 10 0 0
-9 3 -11 8 -5 11 16 85 13 100 -5 10 -13 11 -12 5 4 -4 13 -3 17 5 12 7 -4 13
-1 13 6 4 35 3 98 -1 98 -3 0 -5 16 -6 36 0 20 -7 40 -15 45 -8 5 -9 9 -4 9
22 1 -51 33 -82 36 -25 2 -39 -3 -58 -22 -13 -13 -30 -24 -37 -23 -7 0 -3 5 9
11 45 22 32 54 -15 37z m18 -14 c-7 -8 -20 -15 -29 -15 -11 1 -8 5 9 15 32 18
35 18 20 0z m71 -16 c9 -17 8 -20 -2 -14 -9 6 -11 3 -6 -8 9 -24 0 -21 -14 4
-9 17 -8 20 2 14 9 -6 11 -3 6 8 -9 24 0 21 14 -4z m29 -14 c0 -5 -5 -3 -10 5
-5 8 -10 20 -10 25 0 6 5 3 10 -5 5 -8 10 -19 10 -25z m49 9 c14 -12 -19 -1
-35 12 -18 14 -18 14 6 3 14 -6 27 -13 29 -15z m-234 -23 c3 -5 2 -12 -3 -15
-5 -3 -9 1 -9 9 0 17 3 19 12 6z m60 0 c3 -5 2 -12 -3 -15 -5 -3 -9 1 -9 9 0
17 3 19 12 6z m155 5 c0 -2 -7 -7 -16 -10 -8 -3 -12 -2 -9 4 6 10 25 14 25 6z
m25 -5 c3 -5 2 -12 -3 -15 -5 -3 -9 1 -9 9 0 17 3 19 12 6z m-219 -29 c-17
-16 -18 -16 -5 5 7 12 15 20 18 17 3 -2 -3 -12 -13 -22z m131 5 c14 0 25 -21
30 -59 l4 -28 -79 0 -80 0 8 34 c4 19 5 37 2 40 -3 4 1 6 9 7 25 1 51 7 57 14
3 3 13 3 21 -1 9 -3 21 -7 28 -7z"/>
<path d="M4441 963 c-6 -10 -11 -13 -11 -6 0 18 -90 0 -90 -18 0 -6 8 -5 21 1
11 7 23 9 27 6 3 -3 0 -6 -7 -6 -7 0 -10 -4 -7 -9 3 -4 -8 -7 -25 -5 -27 3
-30 2 -18 -12 10 -12 10 -15 -2 -12 -10 2 -15 -10 -19 -42 -7 -60 -1 -92 16
-86 8 3 11 0 8 -8 -9 -23 16 -31 124 -42 39 -3 82 -29 74 -43 -18 -30 -29 -33
-118 -29 l-92 4 -4 -34 c-5 -40 13 -63 42 -55 11 3 27 0 35 -7 12 -10 15 -10
16 1 0 8 4 5 9 -6 6 -13 9 -15 9 -5 1 12 13 15 53 13 35 -1 52 -5 50 -13 -1
-6 2 -9 8 -5 6 3 8 10 5 15 -3 4 6 11 20 14 35 9 57 48 60 104 4 93 -20 122
-107 127 -27 2 -52 6 -55 9 -4 3 -16 6 -29 6 -26 0 -41 48 -17 57 12 5 12 7 1
15 -9 6 -5 7 12 3 41 -12 45 -11 42 8 -2 9 2 17 8 17 6 0 9 -4 5 -9 -3 -5 0
-13 7 -18 21 -12 38 -12 38 0 0 8 3 8 8 2 11 -15 32 -17 32 -2 0 9 3 8 9 -2
15 -24 30 -3 21 28 -4 16 -6 32 -2 35 6 7 -3 8 -76 10 -32 1 -51 -2 -49 -9 2
-5 13 -9 23 -7 15 2 16 1 5 -7 -18 -12 -51 7 -44 26 7 19 -4 16 -16 -4z m104
-13 c-3 -5 -11 -10 -16 -10 -6 0 -7 5 -4 10 3 6 11 10 16 10 6 0 7 -4 4 -10z
m-85 -20 c0 -5 -7 -7 -15 -4 -8 4 -15 8 -15 10 0 2 7 4 15 4 8 0 15 -4 15 -10z
m117 4 c-3 -3 -12 -4 -19 -1 -8 3 -5 6 6 6 11 1 17 -2 13 -5z m-173 -13 c3 -5
-1 -11 -9 -14 -9 -4 -12 -1 -8 9 6 16 10 17 17 5z m123 3 c-3 -3 -12 -4 -19
-1 -8 3 -5 6 6 6 11 1 17 -2 13 -5z"/>
<path d="M457 958 c-9 -6 -9 -10 2 -17 7 -5 9 -11 4 -14 -6 -4 -11 -83 -12
-182 -1 -161 0 -175 16 -176 10 -1 35 -2 55 -3 l37 -2 -2 122 c-1 94 2 126 13
140 8 10 10 15 5 12 -6 -4 -16 5 -22 19 -10 20 -10 23 2 13 10 -8 19 -8 34 -1
11 6 38 11 60 11 34 0 41 -3 41 -20 0 -11 5 -20 12 -20 8 0 8 -3 3 -9 -6 -6
-9 -65 -7 -135 l3 -126 52 0 52 0 0 113 c0 61 -4 118 -8 125 -5 7 -3 12 4 12
8 0 7 5 -2 17 -12 14 -12 16 0 8 10 -5 12 -4 7 4 -4 6 -9 24 -12 39 -7 43 -12
52 -30 52 -13 0 -14 -3 -4 -15 9 -10 9 -15 1 -15 -6 0 -11 5 -11 11 0 5 -6 7
-12 3 -7 -4 -5 2 5 13 17 20 17 21 -2 26 -13 3 -18 1 -15 -8 3 -6 -3 -18 -13
-26 -16 -12 -17 -12 -6 1 6 9 9 20 5 25 -9 12 -92 16 -92 4 0 -5 -8 -6 -17 -3
-15 5 -15 3 2 -11 19 -16 19 -16 -7 -10 -18 5 -28 3 -28 -4 0 -6 -6 -11 -14
-11 -8 0 -12 8 -9 23 4 20 0 22 -37 22 -22 1 -46 -3 -53 -7z m71 -14 c4 2 7
-7 7 -19 0 -29 -10 -20 -19 15 -3 14 -3 19 0 12 3 -6 9 -10 12 -8z m129 -26
c-3 -7 -5 -2 -5 12 0 14 2 19 5 13 2 -7 2 -19 0 -25z m40 26 c-3 -3 -12 -4
-19 -1 -8 3 -5 6 6 6 11 1 17 -2 13 -5z m-97 -28 c0 -2 -7 -7 -16 -10 -8 -3
-12 -2 -9 4 6 10 25 14 25 6z m125 -16 c3 -5 1 -10 -4 -10 -6 0 -11 5 -11 10
0 6 2 10 4 10 3 0 8 -4 11 -10z m-211 -8 c2 -4 -9 -7 -24 -7 -16 -1 -27 2 -25
5 5 8 44 10 49 2z"/>
<path d="M885 959 c-3 -3 3 -31 11 -60 9 -30 17 -58 19 -64 1 -5 4 -17 7 -25
23 -67 52 -158 53 -170 4 -28 23 -66 41 -80 10 -8 15 -10 11 -4 -4 7 12 12 51
13 31 1 60 5 63 9 6 6 52 147 53 164 1 3 4 10 9 14 4 4 7 18 7 30 0 13 5 26
10 29 8 5 7 12 -2 23 -10 12 -10 14 0 8 11 -6 14 0 11 20 0 4 5 10 11 14 10 6
9 13 -2 29 -8 11 -19 18 -24 13 -4 -4 -2 1 5 11 7 9 19 17 25 17 8 0 7 -3 -1
-8 -8 -5 -9 -13 -3 -22 6 -8 10 -10 11 -5 7 50 7 50 -35 50 -44 0 -61 -9 -63
-34 -1 -9 -15 -56 -31 -106 -16 -49 -33 -105 -37 -123 -4 -19 -10 -30 -14 -25
-7 7 -44 119 -45 135 -1 3 -4 10 -8 14 -5 4 -8 17 -8 29 0 12 -3 25 -7 29 -4
4 -9 19 -11 34 -2 15 -8 31 -13 37 -11 11 -88 15 -94 4z m79 -10 c-2 -4 1 -9
8 -11 7 -3 4 -7 -7 -12 -11 -4 -16 -4 -12 0 4 4 -1 13 -11 20 -16 12 -15 13 5
11 12 0 20 -4 17 -8z m244 -3 c-10 -7 -16 -15 -13 -18 3 -2 -2 -5 -10 -5 -22
0 -18 12 8 25 30 15 35 14 15 -2z m-281 -12 c-3 -3 -12 -4 -19 -1 -8 3 -5 6 6
6 11 1 17 -2 13 -5z m240 -39 c0 -8 -4 -12 -9 -9 -5 3 -6 10 -3 15 9 13 12 11
12 -6z m4 -42 c13 -16 12 -17 -3 -4 -10 7 -18 15 -18 17 0 8 8 3 21 -13z"/>
<path d="M2320 960 c0 -5 5 -10 11 -10 5 0 7 5 4 10 -3 6 -8 10 -11 10 -2 0
-4 -4 -4 -10z"/>
<path d="M3563 918 c0 -33 3 -46 11 -41 8 5 8 3 0 -8 -7 -9 -12 -69 -13 -160
l-2 -146 31 3 c17 2 28 0 25 -5 -3 -5 -1 -13 5 -16 6 -4 9 -1 8 6 -2 7 3 14
10 15 6 1 16 2 20 3 5 0 8 64 8 142 -1 120 1 142 15 150 9 4 20 5 25 1 5 -4 3
0 -4 10 -10 12 -10 18 -1 24 8 4 9 3 5 -4 -5 -9 7 -12 39 -12 34 0 44 -3 39
-12 -6 -10 -4 -10 8 0 14 11 16 11 14 0 -1 -7 -6 -19 -10 -27 -6 -10 -5 -12 2
-7 9 5 12 -28 12 -127 0 -73 2 -136 4 -138 2 -2 26 -2 53 -1 l49 4 -2 147 c-1
144 -12 209 -37 229 -19 15 -87 25 -87 12 0 -6 4 -9 9 -5 6 3 14 -3 20 -13 7
-14 6 -19 -4 -19 -7 0 -11 7 -8 14 3 8 2 13 -3 12 -21 -4 -35 2 -29 11 3 6 1
10 -4 10 -6 0 -11 -6 -11 -12 0 -8 -3 -9 -8 -3 -10 14 -32 17 -32 5 0 -5 6
-10 13 -10 6 0 4 -5 -6 -11 -10 -6 -21 -8 -24 -5 -4 3 -1 6 6 6 7 0 9 4 6 10
-4 6 -11 5 -19 -3 -8 -6 -12 -15 -9 -19 2 -5 -3 -8 -11 -8 -9 0 -16 9 -16 20
0 11 -3 20 -7 21 -5 0 -26 2 -48 3 l-41 2 -1 -48z m27 32 c0 -5 -5 -10 -11
-10 -5 0 -7 5 -4 10 3 6 8 10 11 10 2 0 4 -4 4 -10z m55 1 c3 -5 2 -12 -3 -15
-5 -3 -9 1 -9 9 0 17 3 19 12 6z m228 -14 c3 -8 -1 -14 -8 -14 -7 0 -11 6 -8
14 3 7 6 13 8 13 2 0 5 -6 8 -13z m-93 -1 c0 -2 -7 -6 -15 -10 -8 -3 -15 -1
-15 4 0 6 7 10 15 10 8 0 15 -2 15 -4z m-170 -10 c0 -3 -4 -8 -10 -11 -5 -3
-10 -1 -10 4 0 6 5 11 10 11 6 0 10 -2 10 -4z m44 -15 c4 -5 -3 -7 -14 -4 -23
6 -26 13 -6 13 8 0 17 -4 20 -9z m91 -1 c3 -6 -1 -7 -9 -4 -18 7 -21 14 -7 14
6 0 13 -4 16 -10z m75 -4 c0 -2 -7 -7 -16 -10 -8 -3 -12 -2 -9 4 6 10 25 14
25 6z m65 -6 c3 -6 -1 -7 -9 -4 -18 7 -21 14 -7 14 6 0 13 -4 16 -10z m-239
-26 c1 -9 0 -13 -4 -10 -3 4 -7 14 -8 22 -1 9 0 13 4 10 3 -4 7 -14 8 -22z"/>
<path d="M2341 874 c0 -11 3 -14 6 -6 3 7 2 16 -1 19 -3 4 -6 -2 -5 -13z"/>
<path d="M4435 871 c-3 -5 -2 -12 3 -15 5 -3 9 1 9 9 0 17 -3 19 -12 6z"/>
<path d="M4475 871 c-3 -5 -2 -12 3 -15 5 -3 9 1 9 9 0 17 -3 19 -12 6z"/>
<path d="M1516 712 c-3 -5 1 -9 9 -9 8 0 12 4 9 9 -3 4 -7 8 -9 8 -2 0 -6 -4
-9 -8z"/>
<path d="M1855 710 c3 -5 8 -10 11 -10 2 0 4 5 4 10 0 6 -5 10 -11 10 -5 0 -7
-4 -4 -10z"/>
<path d="M3390 716 c0 -2 7 -7 16 -10 8 -3 12 -2 9 4 -6 10 -25 14 -25 6z"/>
<path d="M1605 550 c-3 -6 1 -7 9 -4 18 7 21 14 7 14 -6 0 -13 -4 -16 -10z"/>
<path d="M2730 549 c0 -5 5 -7 10 -4 6 3 10 8 10 11 0 2 -4 4 -10 4 -5 0 -10
-5 -10 -11z"/>
<path d="M3850 549 c0 -5 5 -7 10 -4 6 3 10 8 10 11 0 2 -4 4 -10 4 -5 0 -10
-5 -10 -11z"/>
</g>
</svg>
